<svg viewBox="0 0 689 250" xmlns="http://www.w3.org/2000/svg" xmlns:xlink="http://www.w3.org/1999/xlink"><clipPath id="a"><path d="m118.87 29.44s0 8 20.8 20.61c40.42 24.55 40.33 47.07 40.33 51.79 0 20.07-20.89 33-30.58 22.54 0 0 9.51-7 9.51-17.91 0 0-7 4.6-10.62 5.39 0 0 4.75-8.4 2.53-23.14 0 0-3.8 7.45-16 13.47 0 0 4.75-10.62.31-20.76 0 0 .95 12.68-27.89 26.15s-20 27-20 27 5.75-6.11 15.51-1.82c13.21 5.8 7.87 29.08-13.37 29.08-20.68 0-34.25-22.48-34.25-40 0-7.26.79-20.62 13.91-35.31 10.42-11.78 23.28-17.94 26.04-30.86-14.29 13.25-40.1 21.89-55.4 44.56-13.77 20.37-9.3 47.3-6.82 55.59a91.15 91.15 0 0 0 87.31 65c50.33 0 91.65-40.27 91.65-90.59 0-76.23-72.43-84.32-92.97-100.79zm-12.19 93.26c-1.53.36-3-.28-5.45-1a8.37 8.37 0 0 0 -3.1-.56 38.19 38.19 0 0 1 4.85-2.78c2.43-1.12 4.51-1.18 5.48 1a2.55 2.55 0 0 1 -1.78 3.34z"/></clipPath><linearGradient id="b" gradientUnits="userSpaceOnUse" x1="166.15" x2="76.76" y1="208.58" y2="53.75"><stop offset="0" stop-color="#146cd0"/><stop offset="1" stop-color="#0fa1ea"/></linearGradient><g fill="#07c1f2"><path d="m263.34 180.56a30.1 30.1 0 0 1 -13.29-2.94 31 31 0 0 1 -10.48-8.25 39 39 0 0 1 -6.9-12.86 57.85 57.85 0 0 1 0-33.58 39.19 39.19 0 0 1 6.9-12.87 30.88 30.88 0 0 1 10.48-8.22 31.78 31.78 0 0 1 26.57 0 30.78 30.78 0 0 1 10.48 8.22 39.19 39.19 0 0 1 6.9 12.87 57.85 57.85 0 0 1 0 33.58 39 39 0 0 1 -6.9 12.86 30.87 30.87 0 0 1 -10.48 8.25 30.09 30.09 0 0 1 -13.28 2.94zm0-6.8a23.2 23.2 0 0 0 10.24-2.29 22.44 22.44 0 0 0 8.15-6.69 32.68 32.68 0 0 0 5.27-10.78 54.73 54.73 0 0 0 0-28.59 32.12 32.12 0 0 0 -5.29-10.69 22.6 22.6 0 0 0 -8.15-6.64 24.34 24.34 0 0 0 -20.57 0 23 23 0 0 0 -8.07 6.64 32.74 32.74 0 0 0 -5.32 10.69 54.18 54.18 0 0 0 0 28.59 33.31 33.31 0 0 0 5.32 10.74 22.78 22.78 0 0 0 8.07 6.69 23.1 23.1 0 0 0 10.35 2.33z"/><path d="m310.24 123.06h7.32v7.94a38.34 38.34 0 0 1 7.89-6.3 20.38 20.38 0 0 1 10.84-2.7 22.8 22.8 0 0 1 9 1.82 19.77 19.77 0 0 1 7.32 5.37 26.4 26.4 0 0 1 4.87 9 40.39 40.39 0 0 1 1.85 12.81 40.59 40.59 0 0 1 -1.82 12.84 25.41 25.41 0 0 1 -5 9 20.16 20.16 0 0 1 -7.52 5.34 24.38 24.38 0 0 1 -9.39 1.79 20.56 20.56 0 0 1 -9.86-2.38 33.8 33.8 0 0 1 -8.2-6.18v28.9h-7.32zm24.76 50.8a17.19 17.19 0 0 0 6.87-1.35 13.9 13.9 0 0 0 5.37-4.1 19.89 19.89 0 0 0 3.5-7 36.5 36.5 0 0 0 1.26-10.33 34.74 34.74 0 0 0 -1.31-10.08 20.34 20.34 0 0 0 -3.68-7.13 15 15 0 0 0 -5.42-4.2 15.89 15.89 0 0 0 -6.59-1.38 17.53 17.53 0 0 0 -9.29 2.49 40 40 0 0 0 -8.15 6.75v27.24a34.84 34.84 0 0 0 8.35 6.8 18.5 18.5 0 0 0 9.09 2.29z"/><path d="m394.56 180.24a24.06 24.06 0 0 1 -9.34-1.86 21.78 21.78 0 0 1 -7.81-5.61 28.52 28.52 0 0 1 -5.37-9.13 36 36 0 0 1 -2.04-12.64 34.84 34.84 0 0 1 2.18-12.9 26.46 26.46 0 0 1 5.71-9 23.4 23.4 0 0 1 7.86-5.32 23.07 23.07 0 0 1 8.79-1.77 22.16 22.16 0 0 1 9.11 1.87 19.83 19.83 0 0 1 7.21 5.53 27 27 0 0 1 4.8 9.13 40.87 40.87 0 0 1 1.77 12.58v1.4h-40.04a27.08 27.08 0 0 0 1.43 9.19 20.84 20.84 0 0 0 3.81 6.74 16.11 16.11 0 0 0 12.4 5.66 18.26 18.26 0 0 0 10.25-2.62 25.46 25.46 0 0 0 7.18-7.6l4.57 3.63a29.6 29.6 0 0 1 -9.11 9.34q-5.37 3.38-13.36 3.38zm15.78-33.62a35.27 35.27 0 0 0 -1.43-7.29 18.67 18.67 0 0 0 -3-5.92 13.33 13.33 0 0 0 -4.82-3.89 15.3 15.3 0 0 0 -6.62-1.37 15.73 15.73 0 0 0 -5.86 1.11 15.29 15.29 0 0 0 -5.11 3.4 19.34 19.34 0 0 0 -3.9 5.74 26.85 26.85 0 0 0 -2.1 8.22z"/><path d="m431.25 123.06h7.31v8.82a41.82 41.82 0 0 1 9.37-7 24.52 24.52 0 0 1 12-2.93q8.31 0 12.48 4.36t4.18 12.25v40.47h-7.32v-39.1q0-5.93-2.7-8.8t-8.45-2.88a20.56 20.56 0 0 0 -10.1 2.6 46.27 46.27 0 0 0 -9.47 7.16v41h-7.31z"/></g><g fill="#077cdc"><path d="m523 180.35a41.74 41.74 0 0 1 -14.17-2.18 24.56 24.56 0 0 1 -15.68-16.17 42.57 42.57 0 0 1 -1.87-13v-48.61h17.33v48.15q0 8.61 3.45 13.18t11.24 4.57q7.62 0 11-4.57t3.39-13.18v-48.15h17v48.46a43 43 0 0 1 -1.86 13.1 25.67 25.67 0 0 1 -5.74 9.94 25 25 0 0 1 -9.88 6.28 41.92 41.92 0 0 1 -14.21 2.18z"/><path d="m570.47 179.05v-78.66h17.22v78.66z"/><path d="m627.75 180.56a45.88 45.88 0 0 1 -16.89-2.83 42.31 42.31 0 0 1 -12.53-7.6l8.72-11.37a32.46 32.46 0 0 0 9 5.76 26.23 26.23 0 0 0 10.71 2.28q7.85 0 11.39-3.91a14.29 14.29 0 0 0 3.56-10q0-6.69-3.45-10.46t-10.15-3.76a16.54 16.54 0 0 0 -7.7 1.89 21.68 21.68 0 0 0 -6.72 5.63l-11.16-3.47 3.17-42.34h47.73l-.88 13.07h-33.62l-1.51 17.44a17.86 17.86 0 0 1 5.92-3.4 28.31 28.31 0 0 1 10-1.48 28.94 28.94 0 0 1 11 2 22.73 22.73 0 0 1 8 5.42 22.5 22.5 0 0 1 4.88 8.28 32.85 32.85 0 0 1 1.63 10.59 30.1 30.1 0 0 1 -2.12 11.46 25 25 0 0 1 -6.15 8.93 28.06 28.06 0 0 1 -9.84 5.81 38.57 38.57 0 0 1 -12.99 2.06z"/></g><g clip-path="url(#a)"><path d="m118.87 29.44s0 8 20.8 20.61c40.42 24.55 40.33 47.07 40.33 51.79 0 20.07-20.89 33-30.58 22.54 0 0 9.51-7 9.51-17.91 0 0-7 4.6-10.62 5.39 0 0 4.75-8.4 2.53-23.14 0 0-3.8 7.45-16 13.47 0 0 4.75-10.62.31-20.76 0 0 .95 12.68-27.89 26.15s-20 27-20 27 5.75-6.11 15.51-1.82c13.21 5.8 7.87 29.08-13.37 29.08-20.68 0-34.25-22.48-34.25-40 0-7.26.79-20.62 13.91-35.31 10.42-11.78 23.28-17.94 26.04-30.86-14.29 13.25-40.1 21.89-55.4 44.56-13.77 20.37-9.3 47.3-6.82 55.59a91.15 91.15 0 0 0 87.31 65c50.33 0 91.65-40.27 91.65-90.59 0-76.23-72.43-84.32-92.97-100.79z" fill="url(#b)"/><g fill="#07c1f2"><path d="m113.64 124.61a45.49 45.49 0 0 0 21.19-22.44s4.76-10.63.32-20.78c0 0 .95 12.69-27.92 26.17s-20 27-20 27a12.66 12.66 0 0 1 5.8-3c4.77-1.33 12.24-2.63 20.61-6.95z" opacity=".6"/><path d="m114.47 130.48c12.4 0 26.75-5.76 33.85-18.63a28.14 28.14 0 0 0 2.59-8.35 45.71 45.71 0 0 0 0-15.16s-2.36 6.59-16 13.83a110.48 110.48 0 0 1 -19.83 7.83c-32.62 9.9-27.83 24.55-27.83 24.55 5.14-3.43 5.17-4.07 27.22-4.07z" opacity=".4"/><path d="m114.47 130.48c11.4 0 26.9.64 34.95-6.1 4.94-4.14 9.45-9.61 9.53-17.95 0 0-6.75 4.46-10.63 5.42-5.37 1.33-15 3.36-23.88 2.86-30-1.71-37.19 19.82-37.19 19.82 4.13-3.83 9.17-4.05 27.22-4.05z" opacity=".2"/><path d="m113.64 124.61a45.49 45.49 0 0 0 21.19-22.44 110.48 110.48 0 0 1 -19.75 7.83c-32.62 9.9-27.83 24.55-27.83 24.55a12.66 12.66 0 0 1 5.8-3c4.75-1.32 12.22-2.62 20.59-6.94z" opacity=".4"/><path d="m93.05 131.5c4.75-1.27 12.22-2.57 20.59-6.89a46.6 46.6 0 0 0 13-9.84c-.72 0-1.44 0-2.15-.06-30-1.71-37.19 19.82-37.19 19.82a11.48 11.48 0 0 1 4.6-2.66c.32-.13.71-.25 1.15-.37z"/><path d="m211.84 130.19c0-15.2-2.89-27.68-7.67-38.06.46 1.37 9.69 30.22-13.41 53.32-13.19 13.18-35.63 17.75-53.67 3.33 0 0 2.29 36.2-40.59 41.53-28 3.49-50-14.35-59.59-37.08-6.65-15.8-7.27-34 .34-49-10.75 19.77-6.69 43.84-4.37 51.59a91.15 91.15 0 0 0 87.31 65c50.33-.04 91.65-40.31 91.65-90.63z" opacity=".4"/><path d="m202.58 169.92c-4.75 1.29-42 10.15-65.49-21.14 0 0 10.94 42.42-35.55 70.09a92.14 92.14 0 0 0 101-49z" opacity=".6"/><path d="m182.36 196.74c-29.13-15-45.27-48-45.27-48 13 31.66 7.36 56.37 1.55 70.16a91.9 91.9 0 0 0 43.72-22.16z" opacity=".7"/></g></g></svg>