<svg viewBox="0 0 500 500" xmlns="http://www.w3.org/2000/svg" xmlns:xlink="http://www.w3.org/1999/xlink"><clipPath id="a"><path d="m246.61 29.44s0 12.71 33.19 32.89c64.52 39.2 64.3 75.13 64.3 82.67 0 32-33.34 52.74-48.81 36 0 0 15.18-11.26 15.18-28.58 0 0-11.13 7.33-17 8.6 0 0 7.59-13.41 4.05-36.94 0 0-6.07 11.89-25.55 21.51 0 0 7.59-16.95.5-33.14 0 0 1.52 20.23-44.52 41.74s-31.87 43-31.87 43 9.17-9.74 24.76-2.9c21.08 9.26 12.56 46.42-21.34 46.42-33 0-54.67-35.89-54.67-63.91 0-11.59 1.26-32.91 22.19-56.36 16.66-18.65 37.19-28.49 41.6-49.11-22.82 21.14-64 34.94-88.44 71.13-22 32.5-14.84 75.49-10.88 88.72a145.49 145.49 0 0 0 139.41 103.67c80.29 0 146.29-64.28 146.29-144.61 0-121.6-115.62-134.5-148.39-160.8zm-19.46 148.86c-2.45.57-4.8-.46-8.71-1.64-3.65-1.12-4.95-.9-4.95-.9a61.38 61.38 0 0 1 7.74-4.44c3.89-1.79 7.21-1.88 8.75 1.67 1.02 2.34-.83 4.84-2.83 5.31z"/></clipPath><linearGradient id="b" gradientUnits="userSpaceOnUse" x1="322.07" x2="179.39" y1="315.36" y2="68.24"><stop offset="0" stop-color="#146cd0"/><stop offset="1" stop-color="#0fa1ea"/></linearGradient><g fill="#077cdc"><path d="m198.3 449.51a41.43 41.43 0 0 1 -14.07-2.17 24.35 24.35 0 0 1 -15.61-16 42 42 0 0 1 -1.86-13v-48.26h17.24v47.83q0 8.56 3.42 13.09t11.16 4.54q7.58 0 10.95-4.54t3.38-13.09v-47.83h16.89v48.14a42.45 42.45 0 0 1 -1.86 13 25.55 25.55 0 0 1 -5.69 9.87 24.82 24.82 0 0 1 -9.82 6.24 41.63 41.63 0 0 1 -14.13 2.18z"/><path d="m245.41 448.22v-78.14h17.11v78.14z"/><path d="m302.31 449.71a45.23 45.23 0 0 1 -16.77-2.81 41.77 41.77 0 0 1 -12.45-7.55l8.66-11.29a32.43 32.43 0 0 0 8.89 5.73 26.08 26.08 0 0 0 10.64 2.26q7.79 0 11.32-3.89a14.21 14.21 0 0 0 3.53-9.92q0-6.64-3.43-10.38c-2.29-2.5-5.64-3.74-10.08-3.74a16.45 16.45 0 0 0 -7.62 1.88 21.37 21.37 0 0 0 -6.67 5.59l-11.09-3.45 3.15-42.06h47.42l-.88 13h-33.38l-1.49 17.32a17.66 17.66 0 0 1 5.87-3.38 28.24 28.24 0 0 1 9.9-1.47 28.75 28.75 0 0 1 10.95 2 22.55 22.55 0 0 1 8 5.39 22.25 22.25 0 0 1 4.85 8.22 32.63 32.63 0 0 1 1.62 10.51 29.89 29.89 0 0 1 -2.12 11.33 24.86 24.86 0 0 1 -6.11 8.87 28 28 0 0 1 -9.77 5.77 38.39 38.39 0 0 1 -12.94 2.07z"/></g><g clip-path="url(#a)"><path d="m246.61 29.44s0 12.71 33.19 32.89c64.52 39.2 64.3 75.13 64.3 82.67 0 32-33.34 52.74-48.81 36 0 0 15.18-11.26 15.18-28.58 0 0-11.13 7.33-17 8.6 0 0 7.59-13.41 4.05-36.94 0 0-6.07 11.89-25.55 21.51 0 0 7.59-16.95.5-33.14 0 0 1.52 20.23-44.52 41.74s-31.87 43-31.87 43 9.17-9.74 24.76-2.9c21.08 9.26 12.56 46.42-21.34 46.42-33 0-54.67-35.89-54.67-63.91 0-11.59 1.26-32.91 22.19-56.36 16.66-18.65 37.19-28.49 41.6-49.11-22.82 21.14-64 34.94-88.44 71.13-22 32.5-14.84 75.49-10.88 88.72a145.49 145.49 0 0 0 139.41 103.67c80.29 0 146.29-64.28 146.29-144.61 0-121.6-115.62-134.5-148.39-160.8z" fill="url(#b)"/><g fill="#07c1f2"><path d="m238.26 181.35c25.61-13.21 33.82-35.83 33.82-35.83s7.59-17 .5-33.16c0 0 1.52 20.26-44.56 41.78s-31.89 43-31.89 43a20.12 20.12 0 0 1 9.25-4.82c7.62-2.01 19.52-4.09 32.88-10.97z" opacity=".6"/><path d="m239.58 190.72c19.79 0 42.69-9.2 54-29.75a44.88 44.88 0 0 0 4.13-13.32c1.25-7.82 1.38-13.63-.06-24.19 0 0-3.75 10.5-25.59 22.06-7.93 4.2-18.09 8.4-31.53 12.48-52.06 15.8-44.42 39.17-44.42 39.17 8.22-5.43 8.27-6.45 43.47-6.45z" opacity=".4"/><path d="m239.58 190.72c18.2 0 42.94 1 55.79-9.75 7.88-6.6 15.07-15.33 15.21-28.64 0 0-10.78 7.12-17 8.65-8.57 2.11-24 5.36-38.11 4.56-47.89-2.72-59.36 31.63-59.36 31.63 6.62-6.1 14.66-6.45 43.47-6.45z" opacity=".2"/><path d="m238.26 181.35c25.61-13.21 33.82-35.83 33.82-35.83-7.93 4.2-18.09 8.4-31.53 12.48-52.06 15.8-44.42 39.17-44.42 39.17a20.12 20.12 0 0 1 9.25-4.82c7.62-2.04 19.52-4.12 32.88-11z" opacity=".4"/><path d="m205.38 192.35c7.58-2 19.52-4.12 32.88-11a75 75 0 0 0 20.66-15.7c-1.15 0-2.3-.05-3.43-.11-47.89-2.72-59.36 31.63-59.36 31.63a18.59 18.59 0 0 1 7.35-4.25c.59-.19 1.21-.39 1.9-.57z"/><path d="m395 190.24c0-24.25-4.61-44.17-12.23-60.74.72 2.19 15.45 48.23-21.42 85.1-21 21.05-56.86 28.34-85.66 5.32 0 0 3.65 57.78-64.78 66.3-44.7 5.56-79.91-22.92-95.13-59.22-10.62-25.23-11.6-54.22.55-78.16-17.16 31.51-10.68 69.92-7 82.29a145.49 145.49 0 0 0 139.38 103.72c80.29 0 146.29-64.28 146.29-144.61z" opacity=".4"/><path d="m380.22 253.67c-7.59 2.05-67.05 16.2-104.54-33.75 0 0 17.46 67.71-56.74 111.88a147.07 147.07 0 0 0 161.28-78.13z" opacity=".6"/><path d="m347.94 296.48c-46.5-23.93-72.26-76.56-72.26-76.56 20.72 50.53 11.74 90 2.47 112a146.8 146.8 0 0 0 69.79-35.44z" opacity=".7"/></g></g></svg>