<svg viewBox="0 0 428 250" xmlns="http://www.w3.org/2000/svg" xmlns:xlink="http://www.w3.org/1999/xlink"><clipPath id="a"><path d="m118.87 29.44s0 8 20.8 20.61c40.42 24.55 40.33 47.07 40.33 51.79 0 20.07-20.89 33-30.58 22.54 0 0 9.51-7 9.51-17.91 0 0-7 4.6-10.62 5.39 0 0 4.75-8.4 2.53-23.14 0 0-3.8 7.45-16 13.47 0 0 4.75-10.62.31-20.76 0 0 .95 12.68-27.89 26.15s-20 27-20 27 5.75-6.11 15.51-1.82c13.21 5.8 7.87 29.08-13.37 29.08-20.68 0-34.25-22.48-34.25-40 0-7.26.79-20.62 13.91-35.31 10.42-11.78 23.28-17.94 26.04-30.86-14.29 13.25-40.1 21.89-55.4 44.56-13.77 20.37-9.3 47.3-6.82 55.59a91.15 91.15 0 0 0 87.31 65c50.33 0 91.65-40.27 91.65-90.59 0-76.23-72.43-84.32-92.97-100.79zm-12.19 93.26c-1.53.36-3-.28-5.45-1a8.37 8.37 0 0 0 -3.1-.56 38.19 38.19 0 0 1 4.85-2.78c2.43-1.12 4.51-1.18 5.48 1a2.55 2.55 0 0 1 -1.78 3.34z"/></clipPath><linearGradient id="b" gradientUnits="userSpaceOnUse" x1="166.15" x2="76.76" y1="208.58" y2="53.75"><stop offset="0" stop-color="#146cd0"/><stop offset="1" stop-color="#0fa1ea"/></linearGradient><g fill="#077cdc"><path d="m262 180.61a41.74 41.74 0 0 1 -14.17-2.18 24.55 24.55 0 0 1 -15.72-16.17 42.48 42.48 0 0 1 -1.87-13v-48.61h17.34v48.15q0 8.61 3.45 13.18t11.23 4.56q7.63 0 11-4.56t3.4-13.18v-48.15h17v48.46a43 43 0 0 1 -1.86 13.1 25.67 25.67 0 0 1 -5.74 9.94 25.09 25.09 0 0 1 -9.88 6.28 41.88 41.88 0 0 1 -14.18 2.18z"/><path d="m309.42 179.31v-78.66h17.22v78.66z"/><path d="m366.7 180.81a45.89 45.89 0 0 1 -16.89-2.81 42.25 42.25 0 0 1 -12.53-7.61l8.72-11.39a32.46 32.46 0 0 0 8.95 5.76 26.23 26.23 0 0 0 10.71 2.28q7.84 0 11.39-3.91a14.33 14.33 0 0 0 3.56-10q0-6.71-3.45-10.46t-10.16-3.73a16.54 16.54 0 0 0 -7.7 1.89 21.68 21.68 0 0 0 -6.72 5.63l-11.15-3.46 3.17-42.34h47.73l-.88 13.07h-33.57l-1.5 17.44a17.53 17.53 0 0 1 5.91-3.4 28.35 28.35 0 0 1 10-1.48 28.9 28.9 0 0 1 11 2 22.73 22.73 0 0 1 8 5.42 22.42 22.42 0 0 1 4.91 8.29 32.79 32.79 0 0 1 1.63 10.58 29.92 29.92 0 0 1 -2.12 11.42 25 25 0 0 1 -6.15 8.93 28.26 28.26 0 0 1 -9.83 5.81 38.68 38.68 0 0 1 -13.03 2.07z"/></g><g clip-path="url(#a)"><path d="m118.87 29.44s0 8 20.8 20.61c40.42 24.55 40.33 47.07 40.33 51.79 0 20.07-20.89 33-30.58 22.54 0 0 9.51-7 9.51-17.91 0 0-7 4.6-10.62 5.39 0 0 4.75-8.4 2.53-23.14 0 0-3.8 7.45-16 13.47 0 0 4.75-10.62.31-20.76 0 0 .95 12.68-27.89 26.15s-20 27-20 27 5.75-6.11 15.51-1.82c13.21 5.8 7.87 29.08-13.37 29.08-20.68 0-34.25-22.48-34.25-40 0-7.26.79-20.62 13.91-35.31 10.42-11.78 23.28-17.94 26.04-30.86-14.29 13.25-40.1 21.89-55.4 44.56-13.77 20.37-9.3 47.3-6.82 55.59a91.15 91.15 0 0 0 87.31 65c50.33 0 91.65-40.27 91.65-90.59 0-76.23-72.43-84.32-92.97-100.79z" fill="url(#b)"/><g fill="#07c1f2"><path d="m113.64 124.61a45.49 45.49 0 0 0 21.19-22.44s4.76-10.63.32-20.78c0 0 .95 12.69-27.92 26.17s-20 27-20 27a12.66 12.66 0 0 1 5.8-3c4.77-1.33 12.24-2.63 20.61-6.95z" opacity=".6"/><path d="m114.47 130.48c12.4 0 26.75-5.76 33.85-18.63a28.14 28.14 0 0 0 2.59-8.35 45.71 45.71 0 0 0 0-15.16s-2.36 6.59-16 13.83a110.48 110.48 0 0 1 -19.83 7.83c-32.62 9.9-27.83 24.55-27.83 24.55 5.14-3.43 5.17-4.07 27.22-4.07z" opacity=".4"/><path d="m114.47 130.48c11.4 0 26.9.64 34.95-6.1 4.94-4.14 9.45-9.61 9.53-17.95 0 0-6.75 4.46-10.63 5.42-5.37 1.33-15 3.36-23.88 2.86-30-1.71-37.19 19.82-37.19 19.82 4.13-3.83 9.17-4.05 27.22-4.05z" opacity=".2"/><path d="m113.64 124.61a45.49 45.49 0 0 0 21.19-22.44 110.48 110.48 0 0 1 -19.75 7.83c-32.62 9.9-27.83 24.55-27.83 24.55a12.66 12.66 0 0 1 5.8-3c4.75-1.32 12.22-2.62 20.59-6.94z" opacity=".4"/><path d="m93.05 131.5c4.75-1.27 12.22-2.57 20.59-6.89a46.6 46.6 0 0 0 13-9.84c-.72 0-1.44 0-2.15-.06-30-1.71-37.19 19.82-37.19 19.82a11.48 11.48 0 0 1 4.6-2.66c.32-.13.71-.25 1.15-.37z"/><path d="m211.84 130.19c0-15.2-2.89-27.68-7.67-38.06.46 1.37 9.69 30.22-13.41 53.32-13.19 13.18-35.63 17.75-53.67 3.33 0 0 2.29 36.2-40.59 41.53-28 3.49-50-14.35-59.59-37.08-6.65-15.8-7.27-34 .34-49-10.75 19.77-6.69 43.84-4.37 51.59a91.15 91.15 0 0 0 87.31 65c50.33-.04 91.65-40.31 91.65-90.63z" opacity=".4"/><path d="m202.58 169.92c-4.75 1.29-42 10.15-65.49-21.14 0 0 10.94 42.42-35.55 70.09a92.14 92.14 0 0 0 101-49z" opacity=".6"/><path d="m182.36 196.74c-29.13-15-45.27-48-45.27-48 13 31.66 7.36 56.37 1.55 70.16a91.9 91.9 0 0 0 43.72-22.16z" opacity=".7"/></g></g></svg>