<svg viewBox="0 0 500 500" xmlns="http://www.w3.org/2000/svg" xmlns:xlink="http://www.w3.org/1999/xlink"><clipPath id="a"><path d="m244.45-.49s-.06 20.81 54.34 53.86c105.62 64.16 105.26 123 105.26 135.34 0 52.44-54.58 86.34-79.9 58.9 0 0 24.85-18.44 24.85-46.8 0 0-18.22 12-27.75 14.08 0 0 12.42-21.95 6.63-60.46 0 0-9.94 19.46-41.83 35.2 0 0 12.42-27.75.83-54.25 0 0 2.48 33.13-72.9 68.33s-52.18 70.41-52.18 70.41 15-16 40.54-4.75c34.51 15.16 20.56 76-34.94 76-54 0-89.49-58.75-89.49-104.64 0-19 2.06-53.87 36.33-92.26 27.26-30.53 60.88-46.64 68.09-80.4-37.33 34.6-104.72 57.2-144.77 116.44-36 53.21-24.3 123.59-17.83 145.25 29.38 98.18 120.41 169.75 228.15 169.75 131.51 0 239.48-105.23 239.48-236.74 0-199.08-189.26-220.2-242.91-263.26zm-31.86 243.71c-4 .93-7.85-.75-14.25-2.69-6-1.83-8.11-1.48-8.11-1.48a101.62 101.62 0 0 1 12.67-7.26c6.36-2.93 11.8-3.08 14.32 2.74 1.66 3.83-1.35 7.92-4.63 8.69z"/></clipPath><linearGradient id="b" gradientUnits="userSpaceOnUse" x1="367.98" x2="134.4" y1="467.61" y2="63.04"><stop offset="0" stop-color="#ff5a37"/><stop offset="1" stop-color="#ff961e"/></linearGradient><clipPath id="c"><path d="m244.45 0s-.06 20.81 54.34 53.86c105.62 64.14 105.26 122.99 105.26 135.34 0 52.44-54.58 86.34-79.9 58.9 0 0 24.85-18.44 24.85-46.8 0 0-18.22 12-27.75 14.08 0 0 12.42-21.95 6.63-60.46 0 0-9.94 19.46-41.83 35.2 0 0 12.42-27.75.83-54.25 0 0 2.48 33.13-72.9 68.33s-52.18 70.41-52.18 70.41 15-16 40.54-4.75c34.51 15.16 20.56 76-34.94 76-54 0-89.49-58.76-89.49-104.65 0-19 2.06-53.87 36.33-92.26 27.26-30.53 60.88-46.64 68.09-80.4-37.33 34.61-104.72 57.21-144.77 116.45-36 53.21-24.3 123.6-17.83 145.25 29.38 98.19 120.41 169.75 228.15 169.75 131.51 0 239.48-105.23 239.48-236.74 0-199.08-189.26-220.2-242.91-263.26zm-31.86 243.71c-4 .93-7.85-.75-14.25-2.69-6-1.82-8.11-1.48-8.11-1.48a101.62 101.62 0 0 1 12.67-7.26c6.36-2.93 11.8-3.08 14.32 2.74 1.66 3.83-1.35 7.92-4.63 8.69z"/></clipPath><linearGradient id="d" gradientUnits="userSpaceOnUse" x1="367.98" x2="134.4" y1="468.1" y2="63.53"><stop offset="0" stop-color="#fc4229"/><stop offset="1" stop-color="#ff7014"/></linearGradient><g clip-path="url(#a)"><path d="m244.45-.49s-.06 20.81 54.34 53.86c105.62 64.16 105.26 123 105.26 135.34 0 52.44-54.58 86.34-79.9 58.9 0 0 24.85-18.44 24.85-46.8 0 0-18.22 12-27.75 14.08 0 0 12.42-21.95 6.63-60.46 0 0-9.94 19.46-41.83 35.2 0 0 12.42-27.75.83-54.25 0 0 2.48 33.13-72.9 68.33s-52.18 70.41-52.18 70.41 15-16 40.54-4.75c34.51 15.16 20.56 76-34.94 76-54 0-89.49-58.75-89.49-104.64 0-19 2.06-53.87 36.33-92.26 27.26-30.53 60.88-46.64 68.09-80.4-37.33 34.6-104.72 57.2-144.77 116.44-36 53.21-24.3 123.59-17.83 145.25 29.38 98.18 120.41 169.75 228.15 169.75 131.51 0 239.48-105.23 239.48-236.74 0-199.08-189.26-220.2-242.91-263.26z" fill="#ff5a37"/><g fill="#ff961e"><path d="m292.05 311.36s5.95 94.58-106.05 108.53c-73.18 9.11-130.76-37.51-155.74-96.89-17.39-41.34-19-88.87 1-128.08 0 0-72.65 69.25-69.31 172.89 3.43 107.62 88.58 249.05 408.05 208.12 106.21-13.61 145.17-162.43 146.74-250.8 2-109.87-49.45-161.95-49.45-161.95s26.83 77.63-35 139.47c-34.47 34.46-93.1 46.35-140.24 8.71z" opacity=".4"/><path d="m464.51 366.23s-106.82 32.6-172.46-54.87c0 0 28.71 111.32-93.66 183.62 0 0 42.4 125.71 182.45 63.3 44.94-20.02 78.8-116.8 83.67-192.05z" opacity=".6"/><path d="m278.54 526.61s66.83-85.2 13.51-215.25c0 0 47.88 97.82 133.7 132.39 0 0-51.32 85.92-147.21 82.86z" opacity=".8"/><path d="m230.78 248.2c41.93-21.61 55.37-58.64 55.37-58.64s12.42-27.76.82-54.29c0 0 2.48 33.16-73 68.39s-52.22 70.46-52.22 70.46c3.95-3.53 7.71-5.9 15.16-7.9 12.46-3.34 31.99-6.74 53.87-18.02z" opacity=".6"/><path d="m232.94 263.55c32.4 0 69.89-15.06 88.44-48.7 2.9-5.25 5.48-13.78 6.77-21.81 2-12.8 2.25-22.32-.11-39.61 0 0-6.14 17.21-41.89 36.13-13 6.87-29.61 13.74-51.61 20.42-85.24 25.87-72.74 64.14-72.74 64.14 13.43-8.89 13.51-10.57 71.14-10.57z" opacity=".4"/><path d="m232.94 263.55c29.79 0 70.29 1.67 91.33-16 12.9-10.81 24.68-25.1 24.9-46.88 0 0-17.65 11.64-27.79 14.15-14 3.46-39.29 8.78-62.39 7.46-78.41-4.45-97.19 51.8-97.19 51.8 10.81-9.96 23.97-10.53 71.14-10.53z" opacity=".2"/></g><path d="m244.45-.49s-.06 20.81 54.34 53.86c105.62 64.16 105.26 123 105.26 135.34 0 52.44-54.58 86.34-79.9 58.9 0 0 24.85-18.44 24.85-46.8 0 0-18.22 12-27.75 14.08 0 0 12.42-21.95 6.63-60.46 0 0-9.94 19.46-41.83 35.2 0 0 12.42-27.75.83-54.25 0 0 2.48 33.13-72.9 68.33s-52.18 70.41-52.18 70.41 15-16 40.54-4.75c34.51 15.16 20.56 76-34.94 76-54 0-89.49-58.75-89.49-104.64 0-19 2.06-53.87 36.33-92.26 27.26-30.53 60.88-46.64 68.09-80.4-37.33 34.6-104.72 57.2-144.77 116.44-36 53.21-24.3 123.59-17.83 145.25 29.38 98.18 120.41 169.75 228.15 169.75 131.51 0 239.48-105.23 239.48-236.74 0-199.08-189.26-220.2-242.91-263.26z" fill="url(#b)"/></g><g clip-path="url(#c)"><path d="m244.45 0s-.06 20.81 54.34 53.86c105.62 64.14 105.26 122.99 105.26 135.34 0 52.44-54.58 86.34-79.9 58.9 0 0 24.85-18.44 24.85-46.8 0 0-18.22 12-27.75 14.08 0 0 12.42-21.95 6.63-60.46 0 0-9.94 19.46-41.83 35.2 0 0 12.42-27.75.83-54.25 0 0 2.48 33.13-72.9 68.33s-52.18 70.41-52.18 70.41 15-16 40.54-4.75c34.51 15.16 20.56 76-34.94 76-54 0-89.49-58.76-89.49-104.65 0-19 2.06-53.87 36.33-92.26 27.26-30.53 60.88-46.64 68.09-80.4-37.33 34.61-104.72 57.21-144.77 116.45-36 53.21-24.3 123.6-17.83 145.25 29.38 98.19 120.41 169.75 228.15 169.75 131.51 0 239.48-105.23 239.48-236.74 0-199.08-189.26-220.2-242.91-263.26z" fill="url(#d)"/><g fill="#ff961e"><path d="m230.78 248.69c41.93-21.61 55.37-58.64 55.37-58.64s12.42-27.76.82-54.29c0 0 2.48 33.16-73 68.39s-52.22 70.46-52.22 70.46c3.95-3.52 7.71-5.9 15.16-7.9 12.46-3.34 31.99-6.71 53.87-18.02z" opacity=".6"/><path d="m232.94 264c32.4 0 69.89-15.06 88.44-48.7 2.9-5.25 5.48-13.78 6.77-21.81 2-12.8 2.25-22.32-.11-39.61 0 0-6.14 17.21-41.89 36.13-13 6.87-29.61 13.74-51.61 20.42-85.24 25.87-72.74 64.14-72.74 64.14 13.43-8.85 13.51-10.57 71.14-10.57z" opacity=".4"/><path d="m232.94 264c29.79 0 70.29 1.68 91.33-16 12.9-10.81 24.68-25.1 24.9-46.88 0 0-17.65 11.65-27.79 14.15-14 3.46-39.29 8.78-62.39 7.47-78.41-4.45-97.19 51.79-97.19 51.79 10.81-9.92 23.97-10.53 71.14-10.53z" opacity=".2"/><path d="m230.78 248.69c41.93-21.61 55.37-58.64 55.37-58.64-13 6.87-29.61 13.74-51.61 20.42-85.24 25.87-72.74 64.14-72.74 64.14 3.95-3.52 7.71-5.9 15.16-7.9 12.41-3.34 31.94-6.71 53.82-18.02z" opacity=".4"/><path d="m177 266.71c12.41-3.34 31.94-6.74 53.82-18a122.3 122.3 0 0 0 33.78-25.71c-1.88 0-3.75-.07-5.61-.17-78.41-4.45-97.19 51.79-97.19 51.79a30.39 30.39 0 0 1 12-7c1.01-.29 2.03-.62 3.2-.91z"/><path d="m487.36 263.26c0-39.7-7.54-72.31-20-99.45 1.19 3.59 25.3 79-35.06 139.33-34.46 34.46-93.09 46.39-140.23 8.71 0 0 6 94.58-106.06 108.53-73.17 9.11-130.75-37.51-155.73-96.89-17.38-41.3-19-88.77.9-128-28.11 51.63-17.5 114.51-11.45 134.76 29.38 98.19 120.41 169.75 228.15 169.75 131.51 0 239.48-105.23 239.48-236.74z" opacity=".4"/><path d="m463.18 367.1c-12.42 3.36-109.76 26.52-171.13-55.25 0 0 28.58 110.85-92.9 183.15a238.53 238.53 0 0 0 48.73 5c94.17 0 176.27-54 215.3-132.9z" opacity=".6"/><path d="m410.33 437.18c-76.11-39.18-118.28-125.33-118.28-125.33 33.92 82.73 19.22 147.29 4 183.34a240.24 240.24 0 0 0 114.28-58.01z" opacity=".7"/></g></g></svg>