<svg viewBox="0 0 689 250" xmlns="http://www.w3.org/2000/svg" xmlns:xlink="http://www.w3.org/1999/xlink"><clipPath id="a"><path d="m118.87 29.44s0 8 20.8 20.61c40.42 24.55 40.33 47.07 40.33 51.79 0 20.07-20.89 33-30.58 22.54 0 0 9.51-7 9.51-17.91 0 0-7 4.6-10.62 5.39 0 0 4.75-8.4 2.53-23.14 0 0-3.8 7.45-16 13.47 0 0 4.75-10.62.31-20.76 0 0 .95 12.68-27.89 26.15s-20 27-20 27 5.75-6.11 15.51-1.82c13.21 5.8 7.87 29.08-13.37 29.08-20.68 0-34.25-22.48-34.25-40 0-7.26.79-20.62 13.91-35.31 10.42-11.78 23.28-17.94 26.04-30.86-14.29 13.25-40.1 21.89-55.4 44.56-13.77 20.37-9.3 47.3-6.82 55.59a91.15 91.15 0 0 0 87.31 65c50.33 0 91.65-40.27 91.65-90.59 0-76.23-72.43-84.32-92.97-100.79zm-12.19 93.26c-1.53.36-3-.28-5.45-1a8.37 8.37 0 0 0 -3.1-.56 38.19 38.19 0 0 1 4.85-2.78c2.43-1.12 4.51-1.18 5.48 1a2.55 2.55 0 0 1 -1.78 3.34z"/></clipPath><linearGradient id="b" gradientUnits="userSpaceOnUse" x1="166.15" x2="76.76" y1="208.58" y2="53.75"><stop offset="0" stop-color="#fc4229"/><stop offset="1" stop-color="#ff7014"/></linearGradient><g fill="#ff961e"><path d="m263.07 180.7a30.22 30.22 0 0 1 -13.28-2.93 31.12 31.12 0 0 1 -10.48-8.25 39.19 39.19 0 0 1 -6.9-12.87 57.82 57.82 0 0 1 0-33.57 39.09 39.09 0 0 1 6.9-12.87 30.75 30.75 0 0 1 47.53 0 39.09 39.09 0 0 1 6.9 12.87 57.82 57.82 0 0 1 0 33.57 39.19 39.19 0 0 1 -6.9 12.87 31.12 31.12 0 0 1 -10.48 8.25 30.23 30.23 0 0 1 -13.29 2.93zm0-6.8a23.35 23.35 0 0 0 10.25-2.28 22.52 22.52 0 0 0 8.15-6.69 32.88 32.88 0 0 0 5.29-10.74 54.76 54.76 0 0 0 0-28.6 32.16 32.16 0 0 0 -5.29-10.68 22.82 22.82 0 0 0 -8.15-6.65 24.34 24.34 0 0 0 -20.57 0 23.09 23.09 0 0 0 -8.07 6.65 32.39 32.39 0 0 0 -5.32 10.68 54.21 54.21 0 0 0 0 28.6 33.11 33.11 0 0 0 5.32 10.74 22.78 22.78 0 0 0 8.07 6.69 23.18 23.18 0 0 0 10.32 2.28z"/><path d="m310 123.21h7.32v7.94a38.72 38.72 0 0 1 7.89-6.31 20.45 20.45 0 0 1 10.79-2.72 22.79 22.79 0 0 1 9 1.81 20.16 20.16 0 0 1 7.32 5.37 26.4 26.4 0 0 1 4.87 9 46.06 46.06 0 0 1 0 25.64 25.41 25.41 0 0 1 -5 9 20.36 20.36 0 0 1 -7.52 5.34 24.57 24.57 0 0 1 -9.39 1.79 20.57 20.57 0 0 1 -9.86-2.39 34 34 0 0 1 -8.2-6.17v28.9h-7.22zm24.73 50.79a17.27 17.27 0 0 0 6.88-1.35 14 14 0 0 0 5.37-4.1 20.11 20.11 0 0 0 3.5-7.06 36.43 36.43 0 0 0 1.27-10.27 34.65 34.65 0 0 0 -1.32-10.12 20.25 20.25 0 0 0 -3.68-7.13 15.2 15.2 0 0 0 -5.43-4.21 16 16 0 0 0 -6.59-1.37 17.56 17.56 0 0 0 -9.29 2.49 40.52 40.52 0 0 0 -8.14 6.74v27.24a34.36 34.36 0 0 0 8.35 6.8 18.36 18.36 0 0 0 9.08 2.34z"/><path d="m394.3 180.39a23.89 23.89 0 0 1 -9.34-1.87 21.54 21.54 0 0 1 -7.81-5.6 28.57 28.57 0 0 1 -5.37-9.14 35.93 35.93 0 0 1 -2-12.66 34.62 34.62 0 0 1 2.18-12.89 26.54 26.54 0 0 1 5.7-9 23.68 23.68 0 0 1 7.87-5.32 23.21 23.21 0 0 1 8.79-1.76 22 22 0 0 1 9.11 1.87 19.69 19.69 0 0 1 7.21 5.52 27.42 27.42 0 0 1 4.8 9.13 41 41 0 0 1 1.76 12.59v1.4h-40.07a27.23 27.23 0 0 0 1.42 9.18 20.62 20.62 0 0 0 3.82 6.75 16.1 16.1 0 0 0 12.4 5.65 18.28 18.28 0 0 0 10.23-2.65 25.34 25.34 0 0 0 7.18-7.6l4.57 3.63a29.5 29.5 0 0 1 -9.11 9.34q-5.35 3.44-13.34 3.43zm15.77-33.62a35 35 0 0 0 -1.42-7.29 18.67 18.67 0 0 0 -3-5.92 13.15 13.15 0 0 0 -4.83-3.89 15.11 15.11 0 0 0 -6.61-1.38 15.63 15.63 0 0 0 -5.87 1.12 15.34 15.34 0 0 0 -5.11 3.4 19.27 19.27 0 0 0 -3.89 5.73 26.56 26.56 0 0 0 -2.1 8.23z"/><path d="m431 123.21h7.31v8.79a41.22 41.22 0 0 1 9.37-7 24.49 24.49 0 0 1 12-2.93q8.29 0 12.48 4.36t4.18 12.24v40.53h-7.34v-39.13q0-5.91-2.7-8.79t-8.46-2.88a20.54 20.54 0 0 0 -10.07 2.6 46.36 46.36 0 0 0 -9.47 7.16v41h-7.3z"/></g><g fill="#ff5a37"><path d="m522.78 180.49a41.46 41.46 0 0 1 -14.17-2.18 24.45 24.45 0 0 1 -15.72-16.16 42.26 42.26 0 0 1 -1.89-13.05v-48.57h17.33v48.16q0 8.61 3.45 13.18t11.22 4.56q7.62 0 11-4.56t3.4-13.18v-48.16h17v48.47a42.73 42.73 0 0 1 -1.87 13.1 25.6 25.6 0 0 1 -5.73 9.94 25 25 0 0 1 -9.89 6.27 41.58 41.58 0 0 1 -14.13 2.18z"/><path d="m570.2 179.2v-78.67h17.23v78.67z"/><path d="m627.49 180.7a45.6 45.6 0 0 1 -16.89-2.83 42 42 0 0 1 -12.53-7.6l8.71-11.36a32.75 32.75 0 0 0 9 5.76 26.23 26.23 0 0 0 10.67 2.33q7.83 0 11.39-3.92a14.29 14.29 0 0 0 3.55-10q0-6.69-3.45-10.45t-10.14-3.76a16.58 16.58 0 0 0 -7.71 1.89 21.77 21.77 0 0 0 -6.72 5.63l-11.15-3.48 3.16-42.34h47.74l-.88 13.08h-33.57l-1.51 17.35a17.75 17.75 0 0 1 5.92-3.4 33 33 0 0 1 21 .5 21.87 21.87 0 0 1 12.92 13.74 32.75 32.75 0 0 1 1.63 10.58 29.92 29.92 0 0 1 -2.13 11.47 24.79 24.79 0 0 1 -6.14 8.92 28.15 28.15 0 0 1 -9.84 5.81 38.33 38.33 0 0 1 -13.03 2.08z"/></g><g clip-path="url(#a)"><path d="m118.87 29.44s0 8 20.8 20.61c40.42 24.55 40.33 47.07 40.33 51.79 0 20.07-20.89 33-30.58 22.54 0 0 9.51-7 9.51-17.91 0 0-7 4.6-10.62 5.39 0 0 4.75-8.4 2.53-23.14 0 0-3.8 7.45-16 13.47 0 0 4.75-10.62.31-20.76 0 0 .95 12.68-27.89 26.15s-20 27-20 27 5.75-6.11 15.51-1.82c13.21 5.8 7.87 29.08-13.37 29.08-20.68 0-34.25-22.48-34.25-40 0-7.26.79-20.62 13.91-35.31 10.42-11.78 23.28-17.94 26.04-30.86-14.29 13.25-40.1 21.89-55.4 44.56-13.77 20.37-9.3 47.3-6.82 55.59a91.15 91.15 0 0 0 87.31 65c50.33 0 91.65-40.27 91.65-90.59 0-76.23-72.43-84.32-92.97-100.79z" fill="url(#b)"/><g fill="#ff961e"><path d="m113.64 124.61a45.49 45.49 0 0 0 21.19-22.44s4.76-10.63.32-20.78c0 0 .95 12.69-27.92 26.17s-20 27-20 27a12.66 12.66 0 0 1 5.8-3c4.77-1.33 12.24-2.63 20.61-6.95z" opacity=".6"/><path d="m114.47 130.48c12.4 0 26.75-5.76 33.85-18.63a28.14 28.14 0 0 0 2.59-8.35 45.71 45.71 0 0 0 0-15.16s-2.36 6.59-16 13.83a110.48 110.48 0 0 1 -19.83 7.83c-32.62 9.9-27.83 24.55-27.83 24.55 5.14-3.43 5.17-4.07 27.22-4.07z" opacity=".4"/><path d="m114.47 130.48c11.4 0 26.9.64 34.95-6.1 4.94-4.14 9.45-9.61 9.53-17.95 0 0-6.75 4.46-10.63 5.42-5.37 1.33-15 3.36-23.88 2.86-30-1.71-37.19 19.82-37.19 19.82 4.13-3.83 9.17-4.05 27.22-4.05z" opacity=".2"/><path d="m113.64 124.61a45.49 45.49 0 0 0 21.19-22.44 110.48 110.48 0 0 1 -19.75 7.83c-32.62 9.9-27.83 24.55-27.83 24.55a12.66 12.66 0 0 1 5.8-3c4.75-1.32 12.22-2.62 20.59-6.94z" opacity=".4"/><path d="m93.05 131.5c4.75-1.27 12.22-2.57 20.59-6.89a46.6 46.6 0 0 0 13-9.84c-.72 0-1.44 0-2.15-.06-30-1.71-37.19 19.82-37.19 19.82a11.48 11.48 0 0 1 4.6-2.66c.32-.13.71-.25 1.15-.37z"/><path d="m211.84 130.19c0-15.2-2.89-27.68-7.67-38.06.46 1.37 9.69 30.22-13.41 53.32-13.19 13.18-35.63 17.75-53.67 3.33 0 0 2.29 36.2-40.59 41.53-28 3.49-50-14.35-59.59-37.08-6.65-15.8-7.27-34 .34-49-10.75 19.77-6.69 43.84-4.37 51.59a91.15 91.15 0 0 0 87.31 65c50.33-.04 91.65-40.31 91.65-90.63z" opacity=".4"/><path d="m202.58 169.92c-4.75 1.29-42 10.15-65.49-21.14 0 0 10.94 42.42-35.55 70.09a92.14 92.14 0 0 0 101-49z" opacity=".6"/><path d="m182.36 196.74c-29.13-15-45.27-48-45.27-48 13 31.66 7.36 56.37 1.55 70.16a91.9 91.9 0 0 0 43.72-22.16z" opacity=".7"/></g></g></svg>