<?xml version="1.0" encoding="UTF-8" standalone="no"?>
<!DOCTYPE svg PUBLIC "-//W3C//DTD SVG 1.1//EN" "http://www.w3.org/Graphics/SVG/1.1/DTD/svg11.dtd">
<svg xmlns="http://www.w3.org/2000/svg" xmlns:dc="http://purl.org/dc/elements/1.1/" version="1.1" xmlns:xl="http://www.w3.org/1999/xlink" viewBox="29 -21 622 552" width="622" height="552">
  <defs>
    <marker orient="auto" overflow="visible" markerUnits="strokeWidth" id="FilledArrow_Marker" stroke-linejoin="miter" stroke-miterlimit="10" viewBox="-1 -4 10 8" markerWidth="10" markerHeight="8" color="black">
      <g>
        <path d="M 8 0 L 0 -3 L 0 3 Z" fill="currentColor" stroke="currentColor" stroke-width="1"/>
      </g>
    </marker>
    <marker orient="auto" overflow="visible" markerUnits="strokeWidth" id="StickArrow_Marker" stroke-linejoin="miter" stroke-miterlimit="10" viewBox="-1 -4 10 8" markerWidth="10" markerHeight="8" color="black">
      <g>
        <path d="M 8 0 L 0 0 M 0 -3 L 8 0 L 0 3" fill="none" stroke="currentColor" stroke-width="1"/>
      </g>
    </marker>
  </defs>
  <g id="Standard_Dependency_Resolution" stroke-opacity="1" stroke-dasharray="none" stroke="none" fill-opacity="1" fill="none">
    <title>Standard_Dependency_Resolution</title>
    <rect fill="white" x="29" y="-21" width="622" height="552"/>
    <g id="Standard_Dependency_Resolution_Layer_1">
      <title>Layer 1</title>
      <g id="Graphic_78">
        <rect x="30" y="-20" width="620" height="190" fill="#f8f8f8"/>
        <rect x="30" y="-20" width="620" height="190" stroke="black" stroke-linecap="round" stroke-linejoin="round" stroke-width="2"/>
        <text transform="translate(35 -15)" fill="black">
          <tspan font-family="Arial" font-size="18" fill="black" x="548.95996" y="16">Internet</tspan>
        </text>
      </g>
      <g id="Graphic_79">
        <rect x="30" y="190" width="620" height="340" fill="#f8f8f8"/>
        <rect x="30" y="190" width="620" height="340" stroke="black" stroke-linecap="round" stroke-linejoin="round" stroke-width="2"/>
        <text transform="translate(31.9 195)" fill="black">
          <tspan font-family="Arial" font-size="18" fill="black" x="522.1834" y="16">File System</tspan>
        </text>
      </g>
      <g id="Graphic_80">
        <rect x="50" y="390" width="580" height="120" fill="#e6e6e6"/>
        <text transform="translate(55 395)" fill="black">
          <tspan font-family="Arial" font-size="18" fill="black" x="314.8535" y="16">openui5-sample-app Repository</tspan>
        </text>
      </g>
      <g id="Graphic_82">
        <rect x="280" y="430" width="120" height="60" fill="white"/>
        <rect x="280" y="430" width="120" height="60" stroke="black" stroke-linecap="round" stroke-linejoin="round" stroke-width="1.4"/>
        <text transform="translate(285 442.47656)" fill="black">
          <tspan font-family="Arial" font-size="16" fill="black" x="23.86328" y="14">openui5-</tspan>
          <tspan font-family="Arial" font-size="16" fill="black" x="13.199219" y="31.523438">sample-app</tspan>
        </text>
      </g>
      <g id="Graphic_85">
        <rect x="50" y="230" width="580" height="140" fill="#e6e6e6"/>
      </g>
      <g id="Graphic_86">
        <rect x="50" y="20" width="580" height="130" fill="#e6e6e6"/>
        <text transform="translate(55 25)" fill="black">
          <tspan font-family="Arial" font-size="18" fill="black" x="463.96875" y="16">npm Registry</tspan>
        </text>
      </g>
      <g id="Line_87">
        <path d="M 340 430 L 340 365 C 340 362.23858 337.76142 360 335 360 L 135 360 C 132.23858 360 130 357.76142 130 355 L 130 339.9" marker-end="url(#FilledArrow_Marker)" stroke="black" stroke-linecap="round" stroke-linejoin="round" stroke-width="1"/>
      </g>
      <g id="Line_88">
        <path d="M 340 430 L 340 365 C 340 362.23858 337.76142 360 335 360 L 275 360 C 272.23858 360 270 357.76142 270 355 L 270 339.9" marker-end="url(#FilledArrow_Marker)" stroke="black" stroke-linecap="round" stroke-linejoin="round" stroke-width="1"/>
      </g>
      <g id="Line_89">
        <path d="M 340 430 L 340 365 C 340 362.23858 342.23858 360 345 360 L 405 360 C 407.7614 360 410 357.76142 410 355 L 410 339.9" marker-end="url(#FilledArrow_Marker)" stroke="black" stroke-linecap="round" stroke-linejoin="round" stroke-width="1"/>
      </g>
      <g id="Line_90">
        <path d="M 340 430 L 340 365 C 340 362.23858 342.23858 360 345 360 L 545 360 C 547.7614 360 550 357.76142 550 355 L 550 339.9" marker-end="url(#FilledArrow_Marker)" stroke="black" stroke-linecap="round" stroke-linejoin="round" stroke-width="1"/>
      </g>
      <g id="Graphic_91">
        <rect x="70" y="270" width="120" height="60" fill="white"/>
        <rect x="70" y="270" width="120" height="60" stroke="black" stroke-linecap="round" stroke-linejoin="round" stroke-width="1.4"/>
        <text transform="translate(75 282.47656)" fill="black">
          <tspan font-family="Arial" font-size="16" fill="black" x="16.183594" y="14">@openui5/</tspan>
          <tspan font-family="Arial" font-size="16" fill="black" x="15.867188" y="31.523438">sap.ui.core</tspan>
        </text>
      </g>
      <g id="Graphic_92">
        <rect x="210" y="270" width="120" height="60" fill="white"/>
        <rect x="210" y="270" width="120" height="60" stroke="black" stroke-linecap="round" stroke-linejoin="round" stroke-width="1.4"/>
        <text transform="translate(215 282.47656)" fill="black">
          <tspan font-family="Arial" font-size="16" fill="black" x="16.183594" y="14">@openui5/</tspan>
          <tspan font-family="Arial" font-size="16" fill="black" x="33.214844" y="31.523438">sap.m</tspan>
        </text>
      </g>
      <g id="Graphic_93">
        <rect x="350" y="270" width="120" height="60" fill="white"/>
        <rect x="350" y="270" width="120" height="60" stroke="black" stroke-linecap="round" stroke-linejoin="round" stroke-width="1.4"/>
        <text transform="translate(355 282.47656)" fill="black">
          <tspan font-family="Arial" font-size="16" fill="black" x="16.183594" y="14">@openui5/</tspan>
          <tspan font-family="Arial" font-size="16" fill="black" x="10.082031" y="31.523438">sap.ui.layout</tspan>
        </text>
      </g>
      <g id="Graphic_94">
        <rect x="490" y="270" width="120" height="60" fill="white"/>
        <rect x="490" y="270" width="120" height="60" stroke="black" stroke-linecap="round" stroke-linejoin="round" stroke-width="1.4"/>
        <text transform="translate(495 291.23828)" fill="black">
          <tspan font-family="Arial" font-size="16" fill="black" x="47" y="14">…</tspan>
        </text>
      </g>
      <g id="Graphic_95">
        <rect x="70" y="60" width="120" height="60" fill="white"/>
        <rect x="70" y="60" width="120" height="60" stroke="black" stroke-linecap="round" stroke-linejoin="round" stroke-width="1.4"/>
        <text transform="translate(75 72.47656)" fill="black">
          <tspan font-family="Arial" font-size="16" fill="black" x="16.183594" y="14">@openui5/</tspan>
          <tspan font-family="Arial" font-size="16" fill="black" x="15.867188" y="31.523438">sap.ui.core</tspan>
        </text>
      </g>
      <g id="Graphic_96">
        <rect x="210" y="60" width="120" height="60" fill="white"/>
        <rect x="210" y="60" width="120" height="60" stroke="black" stroke-linecap="round" stroke-linejoin="round" stroke-width="1.4"/>
        <text transform="translate(215 72.47656)" fill="black">
          <tspan font-family="Arial" font-size="16" fill="black" x="16.183594" y="14">@openui5/</tspan>
          <tspan font-family="Arial" font-size="16" fill="black" x="33.214844" y="31.523438">sap.m</tspan>
        </text>
      </g>
      <g id="Graphic_97">
        <rect x="350" y="60" width="120" height="60" fill="white"/>
        <rect x="350" y="60" width="120" height="60" stroke="black" stroke-linecap="round" stroke-linejoin="round" stroke-width="1.4"/>
        <text transform="translate(355 72.47656)" fill="black">
          <tspan font-family="Arial" font-size="16" fill="black" x="16.183594" y="14">@openui5/</tspan>
          <tspan font-family="Arial" font-size="16" fill="black" x="10.082031" y="31.523438">sap.ui.layout</tspan>
        </text>
      </g>
      <g id="Graphic_98">
        <rect x="490" y="60" width="120" height="60" fill="white"/>
        <rect x="490" y="60" width="120" height="60" stroke="black" stroke-linecap="round" stroke-linejoin="round" stroke-width="1.4"/>
        <text transform="translate(495 81.23828)" fill="black">
          <tspan font-family="Arial" font-size="16" fill="black" x="47" y="14">…</tspan>
        </text>
      </g>
      <g id="Line_99">
        <line x1="410" y1="269.3" x2="410" y2="129.9" marker-end="url(#StickArrow_Marker)" stroke="black" stroke-linecap="round" stroke-linejoin="round" stroke-width="1"/>
      </g>
      <g id="Line_100">
        <line x1="550" y1="270" x2="550" y2="129.9" marker-end="url(#StickArrow_Marker)" stroke="black" stroke-linecap="round" stroke-linejoin="round" stroke-width="1"/>
      </g>
      <g id="Line_101">
        <line x1="130" y1="270" x2="130" y2="129.9" marker-end="url(#StickArrow_Marker)" stroke="black" stroke-linecap="round" stroke-linejoin="round" stroke-width="1"/>
      </g>
      <g id="Line_102">
        <line x1="270" y1="269.3" x2="270" y2="129.9" marker-end="url(#StickArrow_Marker)" stroke="black" stroke-linecap="round" stroke-linejoin="round" stroke-width="1"/>
      </g>
      <g id="Graphic_105">
        <rect x="411" y="232" width="219" height="28" fill="#e6e6e6"/>
        <text transform="translate(412 237)" fill="black">
          <tspan font-family="Arial" font-size="18" fill="black" x="1.3955078" y="16">~/.ui5/framework/packages</tspan>
        </text>
      </g>
    </g>
  </g>
</svg>
