<?xml version="1.0" encoding="UTF-8" standalone="no"?>
<!DOCTYPE svg PUBLIC "-//W3C//DTD SVG 1.1//EN" "http://www.w3.org/Graphics/SVG/1.1/DTD/svg11.dtd">
<svg xmlns="http://www.w3.org/2000/svg" xmlns:dc="http://purl.org/dc/elements/1.1/" version="1.1" xmlns:xl="http://www.w3.org/1999/xlink" viewBox="39 199 622 352" width="622" height="352">
  <defs>
    <marker orient="auto" overflow="visible" markerUnits="strokeWidth" id="FilledArrow_Marker" stroke-linejoin="miter" stroke-miterlimit="10" viewBox="-1 -4 10 8" markerWidth="10" markerHeight="8" color="black">
      <g>
        <path d="M 8 0 L 0 -3 L 0 3 Z" fill="currentColor" stroke="currentColor" stroke-width="1"/>
      </g>
    </marker>
  </defs>
  <g id="Workspace_Configuration_Single_Lib" stroke-opacity="1" stroke-dasharray="none" stroke="none" fill-opacity="1" fill="none">
    <title>Workspace_Configuration_Single_Lib</title>
    <rect fill="white" x="39" y="199" width="622" height="352"/>
    <g id="Workspace_Configuration_Single_Lib_Layer_1">
      <title>Layer 1</title>
      <g id="Graphic_123">
        <rect x="40" y="200" width="620" height="350" fill="#f8f8f8"/>
        <rect x="40" y="200" width="620" height="350" stroke="black" stroke-linecap="round" stroke-linejoin="round" stroke-width="2"/>
        <text transform="translate(45 205)" fill="black">
          <tspan font-family="Arial" font-size="18" fill="black" x="515.9834" y="16">File System</tspan>
        </text>
      </g>
      <g id="Graphic_122">
        <rect x="60" y="400" width="260" height="130" fill="#e6e6e6"/>
        <text transform="translate(62 405)" fill="black">
          <tspan font-family="Arial" font-size="18" fill="black" x=".8535156" y="16">openui5-sample-app Repository</tspan>
        </text>
      </g>
      <g id="Graphic_121">
        <rect x="110" y="450" width="120" height="60" fill="white"/>
        <rect x="110" y="450" width="120" height="60" stroke="black" stroke-linecap="round" stroke-linejoin="round" stroke-width="1.4"/>
        <text transform="translate(115 462.47656)" fill="black">
          <tspan font-family="Arial" font-size="16" fill="black" x="23.86328" y="14">openui5-</tspan>
          <tspan font-family="Arial" font-size="16" fill="black" x="13.199219" y="31.523438">sample-app</tspan>
        </text>
      </g>
      <g id="Graphic_120">
        <rect x="60" y="240" width="580" height="140" fill="#e6e6e6"/>
        <text transform="translate(65 245)" fill="black">
          <tspan font-family="Arial" font-size="18" fill="black" x="354.3955" y="16">~/.ui5/framework/packages</tspan>
        </text>
      </g>
      <g id="Line_118">
        <path d="M 230 480 L 345 480 C 347.76142 480 350 477.7614 350 475 L 350 375 C 350 372.23858 347.76142 370 345 370 L 145 370 C 142.23858 370 140 367.76142 140 365 L 140 349.9" marker-end="url(#FilledArrow_Marker)" stroke="black" stroke-linecap="round" stroke-linejoin="round" stroke-dasharray="1.0,5.0" stroke-width="1"/>
      </g>
      <g id="Line_117">
        <path d="M 230 480 L 345 480 C 347.76142 480 350 477.7614 350 475 L 350 375 C 350 372.23858 347.76142 370 345 370 L 285 370 C 282.23858 370 280 367.76142 280 365 L 280 349.9" marker-end="url(#FilledArrow_Marker)" stroke="black" stroke-linecap="round" stroke-linejoin="round" stroke-width="1"/>
      </g>
      <g id="Line_116">
        <path d="M 230 480 L 345 480 C 347.76142 480 350 477.7614 350 475 L 350 375 C 350 372.23858 352.23858 370 355 370 L 415 370 C 417.7614 370 420 367.76142 420 365 L 420 349.9" marker-end="url(#FilledArrow_Marker)" stroke="black" stroke-linecap="round" stroke-linejoin="round" stroke-width="1"/>
      </g>
      <g id="Line_115">
        <path d="M 230 480 L 345 480 C 347.76142 480 350 477.7614 350 475 L 350 375 C 350 372.23858 352.23858 370 355 370 L 555 370 C 557.7614 370 560 367.76142 560 365 L 560 349.9" marker-end="url(#FilledArrow_Marker)" stroke="black" stroke-linecap="round" stroke-linejoin="round" stroke-width="1"/>
      </g>
      <g id="Graphic_114">
        <rect x="80" y="280" width="120" height="60" fill="white"/>
        <rect x="80" y="280" width="120" height="60" stroke="black" stroke-linecap="round" stroke-linejoin="round" stroke-width="1.4"/>
        <text transform="translate(85 292.47656)" fill="black">
          <tspan font-family="Arial" font-size="16" fill="black" x="16.183594" y="14">@openui5/</tspan>
          <tspan font-family="Arial" font-size="16" fill="black" x="15.867188" y="31.523438">sap.ui.core</tspan>
        </text>
      </g>
      <g id="Graphic_113">
        <rect x="220" y="280" width="120" height="60" fill="white"/>
        <rect x="220" y="280" width="120" height="60" stroke="black" stroke-linecap="round" stroke-linejoin="round" stroke-width="1.4"/>
        <text transform="translate(225 292.47656)" fill="black">
          <tspan font-family="Arial" font-size="16" fill="black" x="16.183594" y="14">@openui5/</tspan>
          <tspan font-family="Arial" font-size="16" fill="black" x="33.214844" y="31.523438">sap.m</tspan>
        </text>
      </g>
      <g id="Graphic_112">
        <rect x="360" y="280" width="120" height="60" fill="white"/>
        <rect x="360" y="280" width="120" height="60" stroke="black" stroke-linecap="round" stroke-linejoin="round" stroke-width="1.4"/>
        <text transform="translate(365 292.47656)" fill="black">
          <tspan font-family="Arial" font-size="16" fill="black" x="16.183594" y="14">@openui5/</tspan>
          <tspan font-family="Arial" font-size="16" fill="black" x="10.082031" y="31.523438">sap.ui.layout</tspan>
        </text>
      </g>
      <g id="Graphic_111">
        <rect x="500" y="280" width="120" height="60" fill="white"/>
        <rect x="500" y="280" width="120" height="60" stroke="black" stroke-linecap="round" stroke-linejoin="round" stroke-width="1.4"/>
        <text transform="translate(505 301.23828)" fill="black">
          <tspan font-family="Arial" font-size="16" fill="black" x="47" y="14">…</tspan>
        </text>
      </g>
      <g id="Graphic_126">
        <rect x="400" y="400" width="240" height="130" fill="#e6e6e6"/>
        <text transform="translate(405 405)" fill="black">
          <tspan font-family="Arial" font-size="18" fill="black" x="74.89941" y="16">openui5 Repository</tspan>
        </text>
      </g>
      <g id="Graphic_127">
        <rect x="470" y="450" width="120" height="60" fill="white"/>
        <rect x="470" y="450" width="120" height="60" stroke="black" stroke-linecap="round" stroke-linejoin="round" stroke-width="1.4"/>
        <text transform="translate(475 471.2383)" fill="black">
          <tspan font-family="Arial" font-size="16" fill="black" x="15.867188" y="14">sap.ui.core</tspan>
        </text>
      </g>
      <g id="Line_128">
        <line x1="230" y1="480" x2="460.1" y2="480" marker-end="url(#FilledArrow_Marker)" stroke="black" stroke-linecap="round" stroke-linejoin="round" stroke-width="1"/>
      </g>
    </g>
  </g>
</svg>
