<?xml version="1.0" encoding="UTF-8" standalone="no"?>
<!DOCTYPE svg PUBLIC "-//W3C//DTD SVG 1.1//EN" "http://www.w3.org/Graphics/SVG/1.1/DTD/svg11.dtd">
<svg xmlns:dc="http://purl.org/dc/elements/1.1/" version="1.1" xmlns:xl="http://www.w3.org/1999/xlink" xmlns="http://www.w3.org/2000/svg" viewBox="0 100 700 490" width="700" height="490">
  <defs>
    <marker orient="auto" overflow="visible" markerUnits="strokeWidth" id="FilledArrow_Marker" stroke-linejoin="miter" stroke-miterlimit="10" viewBox="-1 -4 10 8" markerWidth="10" markerHeight="8" color="black">
      <g>
        <path d="M 8 0 L 0 -3 L 0 3 Z" fill="currentColor" stroke="currentColor" stroke-width="1"/>
      </g>
    </marker>
  </defs>
  <g id="Workspace_Configuration_Single_Lib" stroke="none" fill="none" fill-opacity="1" stroke-dasharray="none" stroke-opacity="1">
    <title>Workspace_Configuration_Single_Lib</title>
    <rect fill="white" x="0" y="100" width="700" height="490"/>
    <g id="Workspace_Configuration_Single_Lib_Layer_1">
      <title>Layer 1</title>
      <g id="Graphic_130">
        <rect x="0" y="100" width="700" height="490" fill="white"/>
      </g>
      <g id="Graphic_125">
        <text transform="translate(125 115)" fill="black">
          <tspan font-family="Arial" font-weight="bold" font-size="26" fill="black" x="62.728516" y="24">Workspace Configuration:</tspan>
          <tspan font-family="Arial" font-weight="bold" font-size="26" fill="black" x="38.601074" y="54.850586">Use Local Version of a Library</tspan>
        </text>
      </g>
      <g id="Graphic_123">
        <rect x="20" y="200" width="660" height="370" fill="#f8f8f8"/>
        <rect x="20" y="200" width="660" height="370" stroke="black" stroke-linecap="round" stroke-linejoin="round" stroke-width="2"/>
        <text transform="translate(25 205)" fill="black">
          <tspan font-family="Arial" font-size="18" fill="black" x="555.9834" y="16">File System</tspan>
        </text>
      </g>
      <g id="Graphic_122">
        <rect x="30" y="420" width="260" height="140" fill="#e6e6e6"/>
        <text transform="translate(32 425)" fill="black">
          <tspan font-family="Arial" font-size="18" fill="black" x=".8535156" y="16">openui5-sample-app Repository</tspan>
        </text>
      </g>
      <g id="Graphic_121">
        <rect x="100" y="470" width="120" height="60" fill="white"/>
        <rect x="100" y="470" width="120" height="60" stroke="black" stroke-linecap="round" stroke-linejoin="round" stroke-width="1.4"/>
        <text transform="translate(105 482.47656)" fill="black">
          <tspan font-family="Arial" font-size="16" fill="black" x="23.86328" y="14">openui5-</tspan>
          <tspan font-family="Arial" font-size="16" fill="black" x="13.199219" y="31.523438">sample-app</tspan>
        </text>
      </g>
      <g id="Graphic_120">
        <rect x="30" y="230" width="640" height="140" fill="#e6e6e6"/>
        <text transform="translate(35 235)" fill="black">
          <tspan font-family="Arial" font-size="18" fill="black" x="414.3955" y="16">~/.ui5/framework/packages</tspan>
        </text>
      </g>
      <g id="Line_118">
        <path d="M 220 500 L 345 500 C 347.76142 500 350 497.7614 350 495 L 350 405 C 350 402.2386 347.76142 400 345 400 L 115 400 C 112.23858 400 110 397.76142 110 395 L 110 349.9" marker-end="url(#FilledArrow_Marker)" stroke="black" stroke-linecap="round" stroke-linejoin="round" stroke-dasharray="1.0,5.0" stroke-width="1"/>
      </g>
      <g id="Line_117">
        <path d="M 220 500 L 345 500 C 347.76142 500 350 497.7614 350 495 L 350 405 C 350 402.2386 347.76142 400 345 400 L 275 400 C 272.23858 400 270 397.76142 270 395 L 270 349.9" marker-end="url(#FilledArrow_Marker)" stroke="black" stroke-linecap="round" stroke-linejoin="round" stroke-width="1"/>
      </g>
      <g id="Line_116">
        <path d="M 220 500 L 345 500 C 347.76142 500 350 497.7614 350 495 L 350 405 C 350 402.2386 352.23858 400 355 400 L 425 400 C 427.7614 400 430 397.76142 430 395 L 430 349.9" marker-end="url(#FilledArrow_Marker)" stroke="black" stroke-linecap="round" stroke-linejoin="round" stroke-width="1"/>
      </g>
      <g id="Line_115">
        <path d="M 220 500 L 345 500 C 347.76142 500 350 497.7614 350 495 L 350 405 C 350 402.2386 352.23858 400 355 400 L 585 400 C 587.7614 400 590 397.76142 590 395 L 590 349.9" marker-end="url(#FilledArrow_Marker)" stroke="black" stroke-linecap="round" stroke-linejoin="round" stroke-width="1"/>
      </g>
      <g id="Graphic_114">
        <rect x="50" y="280" width="120" height="60" fill="white"/>
        <rect x="50" y="280" width="120" height="60" stroke="black" stroke-linecap="round" stroke-linejoin="round" stroke-width="1.4"/>
        <text transform="translate(55 292.47656)" fill="black">
          <tspan font-family="Arial" font-size="16" fill="black" x="16.183594" y="14">@openui5/</tspan>
          <tspan font-family="Arial" font-size="16" fill="black" x="15.867188" y="31.523438">sap.ui.core</tspan>
        </text>
      </g>
      <g id="Graphic_113">
        <rect x="210" y="280" width="120" height="60" fill="white"/>
        <rect x="210" y="280" width="120" height="60" stroke="black" stroke-linecap="round" stroke-linejoin="round" stroke-width="1.4"/>
        <text transform="translate(215 292.47656)" fill="black">
          <tspan font-family="Arial" font-size="16" fill="black" x="16.183594" y="14">@openui5/</tspan>
          <tspan font-family="Arial" font-size="16" fill="black" x="33.214844" y="31.523438">sap.m</tspan>
        </text>
      </g>
      <g id="Graphic_112">
        <rect x="370" y="280" width="120" height="60" fill="white"/>
        <rect x="370" y="280" width="120" height="60" stroke="black" stroke-linecap="round" stroke-linejoin="round" stroke-width="1.4"/>
        <text transform="translate(375 292.47656)" fill="black">
          <tspan font-family="Arial" font-size="16" fill="black" x="16.183594" y="14">@openui5/</tspan>
          <tspan font-family="Arial" font-size="16" fill="black" x="10.082031" y="31.523438">sap.ui.layout</tspan>
        </text>
      </g>
      <g id="Graphic_111">
        <rect x="530" y="280" width="120" height="60" fill="white"/>
        <rect x="530" y="280" width="120" height="60" stroke="black" stroke-linecap="round" stroke-linejoin="round" stroke-width="1.4"/>
        <text transform="translate(535 301.23828)" fill="black">
          <tspan font-family="Arial" font-size="16" fill="black" x="47" y="14">…</tspan>
        </text>
      </g>
      <g id="Graphic_126">
        <rect x="410" y="420" width="260" height="140" fill="#e6e6e6"/>
        <text transform="translate(415 425)" fill="black">
          <tspan font-family="Arial" font-size="18" fill="black" x="94.89941" y="16">openui5 Repository</tspan>
        </text>
      </g>
      <g id="Graphic_127">
        <rect x="480" y="470" width="120" height="60" fill="white"/>
        <rect x="480" y="470" width="120" height="60" stroke="black" stroke-linecap="round" stroke-linejoin="round" stroke-width="1.4"/>
        <text transform="translate(485 491.2383)" fill="black">
          <tspan font-family="Arial" font-size="16" fill="black" x="15.867188" y="14">sap.ui.core</tspan>
        </text>
      </g>
      <g id="Line_128">
        <line x1="220" y1="500" x2="470.1" y2="500" marker-end="url(#FilledArrow_Marker)" stroke="black" stroke-linecap="round" stroke-linejoin="round" stroke-width="1"/>
      </g>
    </g>
  </g>
</svg>
