<svg id="Layer_1" data-name="Layer 1" xmlns="http://www.w3.org/2000/svg" xmlns:xlink="http://www.w3.org/1999/xlink" viewBox="0 0 130.394 130.394"><defs><style>.cls-1{fill:url(#linear-gradient);}.cls-2{fill:#fff;}</style><linearGradient id="linear-gradient" x1="65.329" y1="0.939" x2="65.329" y2="129.068" gradientUnits="userSpaceOnUse"><stop offset="0" stop-color="#00b8f1"/><stop offset="0.016" stop-color="#01b6f0"/><stop offset="0.308" stop-color="#0d90d9"/><stop offset="0.578" stop-color="#1775c8"/><stop offset="0.817" stop-color="#1c65bf"/><stop offset="1" stop-color="#1e5fbb"/></linearGradient></defs><rect class="cls-1" x="1.264" y="0.939" width="128.128" height="128.128" rx="13.824"/><path class="cls-2" d="M15.877,64.277l6.85-4.258a10.878,10.878,0,0,0,3.941,3.84,10.251,10.251,0,0,0,5.1,1.347,8.188,8.188,0,0,0,3.529-.671,2.357,2.357,0,0,0,1.41-2.309,2.084,2.084,0,0,0-.508-1.421,4.529,4.529,0,0,0-1.38-1.024,10.6,10.6,0,0,0-2-.752l-2.346-.643-4.4-1.206a17.374,17.374,0,0,1-4.224-1.76,9.886,9.886,0,0,1-3.175-2.959,8.226,8.226,0,0,1-1.254-4.744,10.724,10.724,0,0,1,.958-4.659,9.441,9.441,0,0,1,2.681-3.381A12.056,12.056,0,0,1,25.22,37.6a19.157,19.157,0,0,1,5.4-.713,19.69,19.69,0,0,1,4.954.577,18.066,18.066,0,0,1,4,1.526,15.915,15.915,0,0,1,3.121,2.147A21.1,21.1,0,0,1,45.059,43.6l-6.287,5.095A9.9,9.9,0,0,0,37.1,47.049a17.67,17.67,0,0,0-2.039-1.37,10.268,10.268,0,0,0-2.22-.951,8.055,8.055,0,0,0-2.287-.34q-3.97,0-3.97,2.5a2.392,2.392,0,0,0,.438,1.444A4,4,0,0,0,28.246,49.4a7.811,7.811,0,0,0,1.915.771l2.369.644,4.377,1.191a17.7,17.7,0,0,1,4.348,1.82,10.466,10.466,0,0,1,3.314,3.034,8.038,8.038,0,0,1,1.293,4.72,10.975,10.975,0,0,1-.763,4.009,8.914,8.914,0,0,1-2.5,3.481,12.927,12.927,0,0,1-4.514,2.444,21.56,21.56,0,0,1-6.748.924,21.02,21.02,0,0,1-5.33-.629,17.464,17.464,0,0,1-4.276-1.71,14.706,14.706,0,0,1-3.314-2.574A20.437,20.437,0,0,1,15.877,64.277Z"/><path class="cls-2" d="M47.607,71.784l12.139-34.4h8.611L80.5,71.784H71.138l-2.079-6.375H58.276l-2.237,6.375ZM60.446,58.832h6.532l-3.164-9.494h-.09Z"/><path class="cls-2" d="M84.644,71.784V37.516h12.9a36.94,36.94,0,0,1,5.406.4,12.8,12.8,0,0,1,4.771,1.65,9.547,9.547,0,0,1,3.395,3.549,12.273,12.273,0,0,1,1.307,6.091,11.677,11.677,0,0,1-1.38,6.081A9.926,9.926,0,0,1,107.5,58.82a13.462,13.462,0,0,1-4.833,1.65,35.092,35.092,0,0,1-5.175.4H93.8V71.784ZM93.8,53.814h3.988a9.356,9.356,0,0,0,2.673-.317,4.225,4.225,0,0,0,1.666-.893,3.176,3.176,0,0,0,.883-1.39,6.261,6.261,0,0,0,0-3.571,3.176,3.176,0,0,0-.883-1.39,4.328,4.328,0,0,0-1.666-.905,9.109,9.109,0,0,0-2.673-.327H93.8Z"/><path class="cls-2" d="M17.743,113.784V79.517H32.359a38.688,38.688,0,0,1,4.417.259,12.782,12.782,0,0,1,4.1,1.135,7.5,7.5,0,0,1,2.982,2.532A7.692,7.692,0,0,1,45,87.907a8.593,8.593,0,0,1-.555,3.233,6.988,6.988,0,0,1-1.5,2.325A7.331,7.331,0,0,1,40.8,94.973a9.986,9.986,0,0,1-2.573.782v.091a14.989,14.989,0,0,1,2.952.842A7.094,7.094,0,0,1,43.517,98.2a6.7,6.7,0,0,1,1.538,2.436,10.1,10.1,0,0,1,.558,3.579,8.576,8.576,0,0,1-1.182,4.67,8.747,8.747,0,0,1-3.027,2.938,13.119,13.119,0,0,1-4.129,1.515,23.416,23.416,0,0,1-4.47.444ZM26.9,93.169h4.374a5.391,5.391,0,0,0,3.54-.907,3.33,3.33,0,0,0,.023-4.809,5.308,5.308,0,0,0-3.473-.884H26.9Zm0,13.563H31.52a5.95,5.95,0,0,0,3.778-.957,3.3,3.3,0,0,0,1.161-2.693,3.057,3.057,0,0,0-1.207-2.626,6.543,6.543,0,0,0-3.845-.889H26.9Z"/><path class="cls-2" d="M49.121,87.2V79.517H78.1V87.2H68.244v26.583H58.977V87.2Z"/><path class="cls-2" d="M84.394,113.784V79.517H97.3a37.078,37.078,0,0,1,5.406.4,12.813,12.813,0,0,1,4.771,1.65,9.555,9.555,0,0,1,3.4,3.549,12.276,12.276,0,0,1,1.307,6.091,11.674,11.674,0,0,1-1.38,6.081,9.91,9.91,0,0,1-3.545,3.537,13.482,13.482,0,0,1-4.833,1.651,35.225,35.225,0,0,1-5.175.395H93.548v10.918Zm9.154-17.97h3.988a9.356,9.356,0,0,0,2.673-.317,4.237,4.237,0,0,0,1.666-.892,3.185,3.185,0,0,0,.883-1.391,6.238,6.238,0,0,0,0-3.571,3.182,3.182,0,0,0-.883-1.39,4.327,4.327,0,0,0-1.666-.9,9.072,9.072,0,0,0-2.673-.328H93.548Z"/><path class="cls-2" d="M18.077,28.834V16.269h4.566a11.163,11.163,0,0,1,1.923.162,4.464,4.464,0,0,1,1.641.613,3.272,3.272,0,0,1,1.135,1.231,4.225,4.225,0,0,1,.423,2.023,4.154,4.154,0,0,1-.447,2.059,3.328,3.328,0,0,1-1.19,1.239,4.792,4.792,0,0,1-1.666.609,10.751,10.751,0,0,1-1.86.162H20.82v4.467Zm2.743-6.6h1.889a2.751,2.751,0,0,0,1.82-.473,1.762,1.762,0,0,0,.535-1.393,1.739,1.739,0,0,0-.526-1.355,2.737,2.737,0,0,0-1.829-.476H20.82Z"/><path class="cls-2" d="M34.978,29.074a6.25,6.25,0,0,1-2.209-.4,5.375,5.375,0,0,1-1.894-1.207,5.97,5.97,0,0,1-1.322-2.026,7.591,7.591,0,0,1-.5-2.888,7.585,7.585,0,0,1,.5-2.872,6.02,6.02,0,0,1,1.322-2.039,5.29,5.29,0,0,1,1.894-1.206,6.315,6.315,0,0,1,2.209-.4,6.207,6.207,0,0,1,2.2.4,5.355,5.355,0,0,1,1.886,1.206,5.918,5.918,0,0,1,1.322,2.039,7.646,7.646,0,0,1,.5,2.872,7.652,7.652,0,0,1-.5,2.888,5.869,5.869,0,0,1-1.322,2.026,5.443,5.443,0,0,1-1.886,1.207A6.144,6.144,0,0,1,34.978,29.074Zm0-2.229a2.878,2.878,0,0,0,1.313-.294,2.744,2.744,0,0,0,.992-.854,4.269,4.269,0,0,0,.63-1.359,6.674,6.674,0,0,0,.223-1.786,5.041,5.041,0,0,0-.849-3.1,2.942,2.942,0,0,0-4.625,0,5.074,5.074,0,0,0-.841,3.1,6.762,6.762,0,0,0,.219,1.786,4.18,4.18,0,0,0,.625,1.359,2.724,2.724,0,0,0,1,.854A2.9,2.9,0,0,0,34.978,26.845Z"/><path class="cls-2" d="M45.088,28.834,41.749,16.269h2.785L45.86,22q.181.7.327,1.314c.1.412.188.888.277,1.43H46.5q.125-.78.269-1.413t.311-1.314l1.276-5.744H50.9l1.359,5.777c.055.249.111.478.165.688s.107.416.154.618.092.413.136.634.089.472.133.754h.033q.075-.423.133-.754c.038-.221.08-.43.124-.626s.093-.394.146-.593.106-.428.161-.688l1.276-5.81h2.545L53.99,28.834H51.627L49.639,20.09h-.033l-2.122,8.744Z"/><path class="cls-2" d="M59.219,28.834V16.269h8.554v2.313H61.979v2.7h4.194v2.188H61.979V26.6h6.1v2.238Z"/><path class="cls-2" d="M70.267,28.834V16.269h4.715a9.055,9.055,0,0,1,2.069.216,4.194,4.194,0,0,1,1.553.688,3.074,3.074,0,0,1,.978,1.214,4.214,4.214,0,0,1,.34,1.769,3.684,3.684,0,0,1-.671,2.346,3.865,3.865,0,0,1-1.94,1.243L80.1,28.834H77.187L74.576,24.1h-1.6v4.732Zm2.71-6.871h1.889a3.245,3.245,0,0,0,1.778-.385,1.5,1.5,0,0,0,.577-1.347,1.463,1.463,0,0,0-.577-1.318,3.276,3.276,0,0,0-1.778-.381H72.977Z"/><path class="cls-2" d="M82.673,28.834V16.269h2.751V28.834Z"/><path class="cls-2" d="M88.448,28.834V16.269h2.76l5.263,8.015H96.5V16.269h2.553V28.834H96.5l-5.479-8.081h-.033v8.081Z"/><path class="cls-2" d="M106.847,29.074a5.67,5.67,0,0,1-2.466-.493,4.656,4.656,0,0,1-1.711-1.375,5.891,5.891,0,0,1-1-2.081,10.025,10.025,0,0,1-.323-2.623,8.488,8.488,0,0,1,.4-2.673,5.859,5.859,0,0,1,1.136-2.039,4.971,4.971,0,0,1,1.8-1.3,5.986,5.986,0,0,1,2.386-.456,7.05,7.05,0,0,1,1.683.2,4.18,4.18,0,0,1,1.45.663,4.431,4.431,0,0,1,1.149,1.239,6.685,6.685,0,0,1,.791,1.923l-2.529.7a3.989,3.989,0,0,0-1.006-1.877,2.245,2.245,0,0,0-1.554-.551,3.238,3.238,0,0,0-.891.145,2.2,2.2,0,0,0-.949.6,3.644,3.644,0,0,0-.763,1.255,5.959,5.959,0,0,0-.314,2.13,6.924,6.924,0,0,0,.285,2.172,3.808,3.808,0,0,0,.73,1.338,2.432,2.432,0,0,0,.978.688,3.024,3.024,0,0,0,1.04.2,2.493,2.493,0,0,0,1.716-.6,2.791,2.791,0,0,0,.87-1.653H107.56V22.535h4.815v6.3h-2.221V27.1h-.033a2.6,2.6,0,0,1-.36.63,3.032,3.032,0,0,1-.668.638,3.979,3.979,0,0,1-.974.5A3.7,3.7,0,0,1,106.847,29.074Z"/></svg>