<?xml version="1.0" encoding="UTF-8" standalone="no"?>
<!DOCTYPE svg PUBLIC "-//W3C//DTD SVG 1.1//EN" "http://www.w3.org/Graphics/SVG/1.1/DTD/svg11.dtd">
<svg xmlns="http://www.w3.org/2000/svg" xmlns:xl="http://www.w3.org/1999/xlink" version="1.1" xmlns:dc="http://purl.org/dc/elements/1.1/" viewBox="582 36 1140 1592" width="1140" height="1592">
  <defs>
    <marker orient="auto" overflow="visible" markerUnits="strokeWidth" id="FilledArrow_Marker" stroke-linejoin="miter" stroke-miterlimit="10" viewBox="-1 -4 10 8" markerWidth="10" markerHeight="8" color="black">
      <g>
        <path d="M 8 0 L 0 -3 L 0 3 Z" fill="currentColor" stroke="currentColor" stroke-width="1"/>
      </g>
    </marker>
    <marker orient="auto" overflow="visible" markerUnits="strokeWidth" id="FilledArrow_Marker_2" stroke-linejoin="miter" stroke-miterlimit="10" viewBox="-9 -4 10 8" markerWidth="10" markerHeight="8" color="black">
      <g>
        <path d="M -8 0 L 0 3 L 0 -3 Z" fill="currentColor" stroke="currentColor" stroke-width="1"/>
      </g>
    </marker>
  </defs>
  <g id="Task_Minify" stroke="none" stroke-opacity="1" stroke-dasharray="none" fill="none" fill-opacity="1">
    <title>Task_Minify</title>
    <rect fill="white" x="582" y="36" width="1140" height="1592"/>
    <g id="Task_Minify_Layer_1">
      <title>Layer 1</title>
      <g id="Graphic_70">
        <path d="M 692 147 L 752 147 C 768.5685 147 782 160.43146 782 177 L 782 177 C 782 193.56854 768.5685 207 752 207 L 692 207 C 675.43146 207 662 193.56854 662 177 L 662 177 C 662 160.43146 675.43146 147 692 147 Z" fill="white"/>
        <path d="M 692 147 L 752 147 C 768.5685 147 782 160.43146 782 177 L 782 177 C 782 193.56854 768.5685 207 752 207 L 692 207 C 675.43146 207 662 193.56854 662 177 L 662 177 C 662 160.43146 675.43146 147 692 147 Z" stroke="black" stroke-linecap="round" stroke-linejoin="round" stroke-width="1.4"/>
        <text transform="translate(667 159.47656)" fill="black">
          <tspan font-family="Arial" font-size="16" fill="black" x="15.878906" y="14">Minify a JS </tspan>
          <tspan font-family="Arial" font-size="16" fill="black" x="20.761719" y="31.523438">Resource</tspan>
        </text>
      </g>
      <g id="Line_71">
        <line x1="821" y1="37" x2="822" y2="1627" stroke="#969696" stroke-linecap="round" stroke-linejoin="round" stroke-dasharray="32.0,18.0" stroke-width="2"/>
      </g>
      <g id="Graphic_72">
        <text transform="translate(1052 52)" fill="black">
          <tspan font-family="Helvetica Neue" font-weight="bold" font-size="22" fill="black" x="17.568" y="21">processors/minifier</tspan>
        </text>
      </g>
      <g id="Line_73">
        <line x1="1522" y1="37" x2="1522" y2="1627" stroke="#969696" stroke-linecap="round" stroke-linejoin="round" stroke-dasharray="32.0,18.0" stroke-width="2"/>
      </g>
      <g id="Graphic_75">
        <path d="M 1122 387 L 1132 397 L 1122 407 L 1112 397 Z" fill="white"/>
        <path d="M 1122 387 L 1132 397 L 1122 407 L 1112 397 Z" stroke="black" stroke-linecap="round" stroke-linejoin="round" stroke-width="1"/>
      </g>
      <g id="Line_76">
        <path d="M 722 207 L 722 247 C 722 249.76142 724.2386 252 727 252 L 1117 252 C 1119.7614 252 1122 254.23858 1122 257 L 1122 287.1" marker-end="url(#FilledArrow_Marker)" stroke="black" stroke-linecap="round" stroke-linejoin="round" stroke-width="1"/>
      </g>
      <g id="Line_79">
        <line x1="722" y1="117" x2="722" y2="137.1" marker-end="url(#FilledArrow_Marker)" stroke="black" stroke-linecap="round" stroke-linejoin="round" stroke-width="1"/>
      </g>
      <g id="Graphic_80">
        <circle cx="722" cy="107" r="10.000015979019" fill="black"/>
      </g>
      <g id="Group_83">
        <g id="Graphic_81">
          <circle cx="722" cy="1607" r="10.000015979019" stroke="black" stroke-linecap="round" stroke-linejoin="round" stroke-width="1"/>
        </g>
        <g id="Graphic_82">
          <circle cx="722" cy="1607" r="5.00000798950956" fill="black"/>
          <circle cx="722" cy="1607" r="5.00000798950956" stroke="black" stroke-linecap="round" stroke-linejoin="round" stroke-width="2"/>
        </g>
      </g>
      <g id="Line_84">
        <line x1="722" y1="1567" x2="722" y2="1587.1" marker-end="url(#FilledArrow_Marker)" stroke="black" stroke-linecap="round" stroke-linejoin="round" stroke-width="1"/>
      </g>
      <g id="Graphic_91">
        <text transform="translate(1527 52)" fill="black">
          <tspan font-family="Helvetica Neue" font-weight="bold" font-size="22" fill="black" x="62.407" y="21">Terser</tspan>
        </text>
      </g>
      <g id="Graphic_92">
        <text transform="translate(647 52)" fill="black">
          <tspan font-family="Helvetica Neue" font-weight="bold" font-size="22" fill="black" x="11.068" y="21">tasks/minify</tspan>
        </text>
      </g>
      <g id="Graphic_93">
        <path d="M 1062 297 L 1182 297 C 1198.5685 297 1212 310.43146 1212 327 L 1212 327 C 1212 343.56854 1198.5685 357 1182 357 L 1062 357 C 1045.4315 357 1032 343.56854 1032 327 L 1032 327 C 1032 310.43146 1045.4315 297 1062 297 Z" fill="white"/>
        <path d="M 1062 297 L 1182 297 C 1198.5685 297 1212 310.43146 1212 327 L 1212 327 C 1212 343.56854 1198.5685 357 1182 357 L 1062 357 C 1045.4315 357 1032 343.56854 1032 327 L 1032 327 C 1032 310.43146 1045.4315 297 1062 297 Z" stroke="black" stroke-linecap="round" stroke-linejoin="round" stroke-width="1.4"/>
        <text transform="translate(1037 309.47656)" fill="black">
          <tspan font-family="Arial" font-size="16" fill="black" x="2.7382812" y="14">Search for Source Map </tspan>
          <tspan font-family="Arial" font-size="16" fill="black" x="3.1796875" y="31.523438">Reference in Resource</tspan>
        </text>
      </g>
      <g id="Graphic_95">
        <path d="M 1052 467 L 1192 467 C 1208.5685 467 1222 480.43146 1222 497 L 1222 497 C 1222 513.56854 1208.5685 527 1192 527 L 1052 527 C 1035.4315 527 1022 513.56854 1022 497 L 1022 497 C 1022 480.43146 1035.4315 467 1052 467 Z" fill="white"/>
        <path d="M 1052 467 L 1192 467 C 1208.5685 467 1222 480.43146 1222 497 L 1222 497 C 1222 513.56854 1208.5685 527 1192 527 L 1052 527 C 1035.4315 527 1022 513.56854 1022 497 L 1022 497 C 1022 480.43146 1035.4315 467 1052 467 Z" stroke="black" stroke-linecap="round" stroke-linejoin="round" stroke-width="1.4"/>
        <text transform="translate(1027 470.71484)" fill="black">
          <tspan font-family="Arial" font-size="16" fill="black" x="65.21094" y="14">Remove </tspan>
          <tspan font-family="Arial" font-size="16" fill="black" x="24.59375" y="31.523438">sourceMappingURL </tspan>
          <tspan font-family="Arial" font-size="16" fill="black" x="13.179688" y="49.046875">Reference in Resource</tspan>
        </text>
      </g>
      <g id="Graphic_96">
        <path d="M 1022 677 L 1082 677 C 1098.5685 677 1112 690.43146 1112 707 L 1112 707 C 1112 723.5685 1098.5685 737 1082 737 L 1022 737 C 1005.4315 737 992 723.5685 992 707 L 992 707 C 992 690.43146 1005.4315 677 1022 677 Z" fill="white"/>
        <path d="M 1022 677 L 1082 677 C 1098.5685 677 1112 690.43146 1112 707 L 1112 707 C 1112 723.5685 1098.5685 737 1082 737 L 1022 737 C 1005.4315 737 992 723.5685 992 707 L 992 707 C 992 690.43146 1005.4315 677 1022 677 Z" stroke="black" stroke-linecap="round" stroke-linejoin="round" stroke-width="1.4"/>
        <text transform="translate(997 689.4766)" fill="black">
          <tspan font-family="Arial" font-size="16" fill="black" x="26.097656" y="14">Resolve </tspan>
          <tspan font-family="Arial" font-size="16" fill="black" x="18.089844" y="31.523438">Reference</tspan>
        </text>
      </g>
      <g id="Graphic_100">
        <path d="M 1192 847 L 1272 847 C 1283.0457 847 1292 855.9543 1292 867 L 1292 867 C 1292 878.0457 1283.0457 887 1272 887 L 1192 887 C 1180.9543 887 1172 878.0457 1172 867 L 1172 867 C 1172 855.9543 1180.9543 847 1192 847 Z" fill="white"/>
        <path d="M 1192 847 L 1272 847 C 1283.0457 847 1292 855.9543 1292 867 L 1292 867 C 1292 878.0457 1283.0457 887 1272 887 L 1192 887 C 1180.9543 887 1172 878.0457 1172 867 L 1172 867 C 1172 855.9543 1180.9543 847 1192 847 Z" stroke="black" stroke-linecap="round" stroke-linejoin="round" stroke-width="1.4"/>
        <text transform="translate(1177 850.542)" fill="black">
          <tspan font-family="Arial" font-size="14" fill="black" x="15.570312" y="13">Log Warning</tspan>
          <tspan font-family="Arial" font-size="14" fill="black" x="4.88916" y="29.458008">&quot;Not Supported&quot;</tspan>
        </text>
      </g>
      <g id="Graphic_101">
        <path d="M 1012 847 L 1092 847 C 1108.5685 847 1122 860.4315 1122 877 L 1122 877 C 1122 893.5685 1108.5685 907 1092 907 L 1012 907 C 995.4315 907 982 893.5685 982 877 L 982 877 C 982 860.4315 995.4315 847 1012 847 Z" fill="white"/>
        <path d="M 1012 847 L 1092 847 C 1108.5685 847 1122 860.4315 1122 877 L 1122 877 C 1122 893.5685 1108.5685 907 1092 907 L 1012 907 C 995.4315 907 982 893.5685 982 877 L 982 877 C 982 860.4315 995.4315 847 1012 847 Z" stroke="black" stroke-linecap="round" stroke-linejoin="round" stroke-width="1.4"/>
        <text transform="translate(987 859.4766)" fill="black">
          <tspan font-family="Arial" font-size="16" fill="black" x="4.519531" y="14">Locate Resource </tspan>
          <tspan font-family="Arial" font-size="16" fill="black" x="17.425781" y="31.523438">within Project</tspan>
        </text>
      </g>
      <g id="Graphic_102">
        <path d="M 872 847 L 932 847 C 948.5685 847 962 860.4315 962 877 L 962 877 C 962 893.5685 948.5685 907 932 907 L 872 907 C 855.4315 907 842 893.5685 842 877 L 842 877 C 842 860.4315 855.4315 847 872 847 Z" fill="white"/>
        <path d="M 872 847 L 932 847 C 948.5685 847 962 860.4315 962 877 L 962 877 C 962 893.5685 948.5685 907 932 907 L 872 907 C 855.4315 907 842 893.5685 842 877 L 842 877 C 842 860.4315 855.4315 847 872 847 Z" stroke="black" stroke-linecap="round" stroke-linejoin="round" stroke-width="1.4"/>
        <text transform="translate(847 850.7148)" fill="black">
          <tspan font-family="Arial" font-size="16" fill="black" x="27.42578" y="14">Decode </tspan>
          <tspan font-family="Arial" font-size="16" fill="black" x="28.753906" y="31.523438">base64 </tspan>
          <tspan font-family="Arial" font-size="16" fill="black" x="26.089844" y="49.046875">Payload</tspan>
        </text>
      </g>
      <g id="Graphic_103">
        <path d="M 862 1087 L 992 1087 C 1003.0457 1087 1012 1095.9543 1012 1107 L 1012 1107 C 1012 1118.0457 1003.0457 1127 992 1127 L 862 1127 C 850.9543 1127 842 1118.0457 842 1107 L 842 1107 C 842 1095.9543 850.9543 1087 862 1087 Z" fill="white"/>
        <path d="M 862 1087 L 992 1087 C 1003.0457 1087 1012 1095.9543 1012 1107 L 1012 1107 C 1012 1118.0457 1003.0457 1127 992 1127 L 862 1127 C 850.9543 1127 842 1118.0457 842 1107 L 842 1107 C 842 1095.9543 850.9543 1087 862 1087 Z" stroke="black" stroke-linecap="round" stroke-linejoin="round" stroke-width="1.4"/>
        <text transform="translate(847 1098.2383)" fill="black">
          <tspan font-family="Arial" font-size="16" fill="black" x="13.742188" y="14">Clone Source Map</tspan>
        </text>
      </g>
      <g id="Graphic_104">
        <path d="M 1377 897 L 1467 897 C 1486.33 897 1502 912.67 1502 932 L 1502 932 C 1502 951.33 1486.33 967 1467 967 L 1377 967 C 1357.67 967 1342 951.33 1342 932 L 1342 932 C 1342 912.67 1357.67 897 1377 897 Z" fill="white"/>
        <path d="M 1377 897 L 1467 897 C 1486.33 897 1502 912.67 1502 932 L 1502 932 C 1502 951.33 1486.33 967 1467 967 L 1377 967 C 1357.67 967 1342 951.33 1342 932 L 1342 932 C 1342 912.67 1357.67 897 1377 897 Z" stroke="black" stroke-linecap="round" stroke-linejoin="round" stroke-width="1.4"/>
        <text transform="translate(1347 905.7148)" fill="black">
          <tspan font-family="Arial" font-size="16" fill="black" x="25.191406" y="14">Create Debug </tspan>
          <tspan font-family="Arial" font-size="16" fill="black" x="10.222656" y="31.523438">Variant by Cloning </tspan>
          <tspan font-family="Arial" font-size="16" fill="black" x="8.300781" y="49.046875">Modified Resource</tspan>
        </text>
      </g>
      <g id="Graphic_107">
        <rect x="862" y="437" width="140" height="59.37402" fill="#e1e1e1"/>
        <text transform="translate(867 442)" fill="black">
          <tspan font-family="Arial" font-size="14" fill="black" x="10.138184" y="13">This Indicates the </tspan>
          <tspan font-family="Arial" font-size="14" fill="black" x="17.914062" y="29.458008">Presence of an </tspan>
          <tspan font-family="Arial" font-size="14" fill="black" x="4.7753906" y="45.916016">&quot;Input Source Map&quot;</tspan>
        </text>
      </g>
      <g id="Graphic_108">
        <path d="M 1567 1247 L 1677 1247 C 1696.33 1247 1712 1262.67 1712 1282 L 1712 1282 C 1712 1301.33 1696.33 1317 1677 1317 L 1567 1317 C 1547.67 1317 1532 1301.33 1532 1282 L 1532 1282 C 1532 1262.67 1547.67 1247 1567 1247 Z" fill="white"/>
        <path d="M 1567 1247 L 1677 1247 C 1696.33 1247 1712 1262.67 1712 1282 L 1712 1282 C 1712 1301.33 1696.33 1317 1677 1317 L 1567 1317 C 1547.67 1317 1532 1301.33 1532 1282 L 1532 1282 C 1532 1262.67 1547.67 1247 1567 1247 Z" stroke="black" stroke-linecap="round" stroke-linejoin="round" stroke-width="1.4"/>
        <text transform="translate(1537 1256.7803)" fill="black">
          <tspan font-family="Arial" font-size="16" fill="black" x="13.855469" y="14">Execute Minification</tspan>
          <tspan font-family="Arial" font-size="14" fill="black" x="1.7382812" y="30.523438">(Using Input Source Map If </tspan>
          <tspan font-family="Arial" font-size="14" fill="black" x="5.624512" y="46.981445">One Has Been Resolved)</tspan>
        </text>
      </g>
      <g id="Graphic_109">
        <path d="M 872 1357 L 982 1357 C 998.5685 1357 1012 1370.4315 1012 1387 L 1012 1387 C 1012 1403.5685 998.5685 1417 982 1417 L 872 1417 C 855.4315 1417 842 1403.5685 842 1387 L 842 1387 C 842 1370.4315 855.4315 1357 872 1357 Z" fill="white"/>
        <path d="M 872 1357 L 982 1357 C 998.5685 1357 1012 1370.4315 1012 1387 L 1012 1387 C 1012 1403.5685 998.5685 1417 982 1417 L 872 1417 C 855.4315 1417 842 1403.5685 842 1387 L 842 1387 C 842 1370.4315 855.4315 1357 872 1357 Z" stroke="black" stroke-linecap="round" stroke-linejoin="round" stroke-width="1.4"/>
        <text transform="translate(847 1360.7148)" fill="black">
          <tspan font-family="Arial" font-size="16" fill="black" x="15.519531" y="14">Reference Source </tspan>
          <tspan font-family="Arial" font-size="16" fill="black" x="30.191406" y="31.523438">Map in Debug </tspan>
          <tspan font-family="Arial" font-size="16" fill="black" x="45.76172" y="49.046875">Resource</tspan>
        </text>
      </g>
      <g id="Line_111">
        <line x1="1122" y1="357.7" x2="1122" y2="377.1" marker-end="url(#FilledArrow_Marker)" stroke="black" stroke-linecap="round" stroke-linejoin="round" stroke-width="1"/>
      </g>
      <g id="Line_112">
        <line x1="1122" y1="407" x2="1122" y2="456.4" marker-end="url(#FilledArrow_Marker)" stroke="black" stroke-linecap="round" stroke-linejoin="round" stroke-width="1"/>
      </g>
      <g id="Graphic_113">
        <rect x="1068.6382" y="420.4404" width="106.72363" height="21.327148" fill="white"/>
        <text transform="translate(1073.6382 425.4404)" fill="black">
          <tspan font-family="Arial" font-size="10" fill="black" x="0" y="9">Contains a Reference</tspan>
        </text>
      </g>
      <g id="Graphic_114">
        <path d="M 1462 547 L 1472 557 L 1462 567 L 1452 557 Z" fill="white"/>
        <path d="M 1462 547 L 1472 557 L 1462 567 L 1452 557 Z" stroke="black" stroke-linecap="round" stroke-linejoin="round" stroke-width="1"/>
      </g>
      <g id="Line_117">
        <path d="M 1122 527 L 1122 537 L 1122 537.1" marker-end="url(#FilledArrow_Marker)" stroke="black" stroke-linecap="round" stroke-linejoin="round" stroke-width="1"/>
      </g>
      <g id="Line_118">
        <line x1="1442.1" y1="557" x2="1132" y2="557" marker-start="url(#FilledArrow_Marker_2)" stroke="black" stroke-linecap="round" stroke-linejoin="round" stroke-width="1"/>
      </g>
      <g id="Graphic_120">
        <rect x="1205.5698" y="546.3364" width="223.25195" height="21.327148" fill="white"/>
        <text transform="translate(1210.5698 551.3364)" fill="black">
          <tspan font-family="Arial" font-size="10" fill="black" x="0" y="9">Resource Has Been Modified by Previous Tasks</tspan>
        </text>
      </g>
      <g id="Line_121">
        <path d="M 1092 637 L 1092 642 C 1092 644.7614 1089.7614 647 1087 647 L 1057 647 C 1054.2386 647 1052 649.2386 1052 652 L 1052 666.4" marker-end="url(#FilledArrow_Marker)" stroke="black" stroke-linecap="round" stroke-linejoin="round" stroke-width="1"/>
      </g>
      <g id="Line_124">
        <line x1="1052" y1="787" x2="1052" y2="837.1" marker-end="url(#FilledArrow_Marker)" stroke="black" stroke-linecap="round" stroke-linejoin="round" stroke-width="1"/>
      </g>
      <g id="Graphic_125">
        <path d="M 1052 767 L 1062 777 L 1052 787 L 1042 777 Z" fill="white"/>
        <path d="M 1052 767 L 1062 777 L 1052 787 L 1042 777 Z" stroke="black" stroke-linecap="round" stroke-linejoin="round" stroke-width="1"/>
      </g>
      <g id="Line_126">
        <line x1="1052" y1="737" x2="1052" y2="757.1" marker-end="url(#FilledArrow_Marker)" stroke="black" stroke-linecap="round" stroke-linejoin="round" stroke-width="1"/>
      </g>
      <g id="Graphic_127">
        <rect x="1017.5444" y="802.8608" width="68.91113" height="21.327148" fill="white"/>
        <text transform="translate(1022.5444 807.8608)" fill="black">
          <tspan font-family="Arial" font-size="10" fill="black" x="0" y="9">Relative URL</tspan>
        </text>
      </g>
      <g id="Line_128">
        <path d="M 1042 777 L 907 777 C 904.2386 777 902 779.2386 902 782 L 902 837.1" marker-end="url(#FilledArrow_Marker)" stroke="black" stroke-linecap="round" stroke-linejoin="round" stroke-width="1"/>
      </g>
      <g id="Graphic_129">
        <rect x="925.9682" y="766.3364" width="92.86621" height="21.327148" fill="white"/>
        <text transform="translate(930.9682 771.3364)" fill="black">
          <tspan font-family="Arial" font-size="10" fill="black" x="0" y="9">Data-URL (&quot;data:&quot;)</tspan>
        </text>
      </g>
      <g id="Line_130">
        <path d="M 1062 777 L 1227 777 C 1229.7614 777 1232 779.2386 1232 782 L 1232 837.1" marker-end="url(#FilledArrow_Marker)" stroke="black" stroke-linecap="round" stroke-linejoin="round" stroke-width="1"/>
      </g>
      <g id="Graphic_131">
        <rect x="1107.0262" y="760.67285" width="82.99805" height="32.654297" fill="white"/>
        <text transform="translate(1112.0262 765.67285)" fill="black">
          <tspan font-family="Arial" font-size="10" fill="black" x="0" y="9">Absolute URL or</tspan>
          <tspan font-family="Arial" font-size="10" fill="black" x="5.3881836" y="20.327148">HTTP(S) URL</tspan>
        </text>
      </g>
      <g id="Graphic_132">
        <path d="M 1052 937 L 1062 947 L 1052 957 L 1042 947 Z" fill="white"/>
        <path d="M 1052 937 L 1062 947 L 1052 957 L 1042 947 Z" stroke="black" stroke-linecap="round" stroke-linejoin="round" stroke-width="1"/>
      </g>
      <g id="Line_133">
        <path d="M 1062 947 L 1157 947 C 1159.7614 947 1162 949.2386 1162 952 L 1162 957.1" marker-end="url(#FilledArrow_Marker)" stroke="black" stroke-linecap="round" stroke-linejoin="round" stroke-width="1"/>
      </g>
      <g id="Graphic_134">
        <rect x="1086.1219" y="936.3364" width="56.694336" height="21.327148" fill="white"/>
        <text transform="translate(1091.1219 941.3364)" fill="black">
          <tspan font-family="Arial" font-size="10" fill="black" x="0" y="9">Not Found</tspan>
        </text>
      </g>
      <g id="Line_135">
        <line x1="1052" y1="907" x2="1052" y2="927.1" marker-end="url(#FilledArrow_Marker)" stroke="black" stroke-linecap="round" stroke-linejoin="round" stroke-width="1"/>
      </g>
      <g id="Graphic_136">
        <path d="M 1132 967 L 1192 967 C 1203.0457 967 1212 975.9543 1212 987 L 1212 987 C 1212 998.0457 1203.0457 1007 1192 1007 L 1132 1007 C 1120.9543 1007 1112 998.0457 1112 987 L 1112 987 C 1112 975.9543 1120.9543 967 1132 967 Z" fill="white"/>
        <path d="M 1132 967 L 1192 967 C 1203.0457 967 1212 975.9543 1212 987 L 1212 987 C 1212 998.0457 1203.0457 1007 1192 1007 L 1132 1007 C 1120.9543 1007 1112 998.0457 1112 987 L 1112 987 C 1112 975.9543 1120.9543 967 1132 967 Z" stroke="black" stroke-linecap="round" stroke-linejoin="round" stroke-width="1.4"/>
        <text transform="translate(1117 970.542)" fill="black">
          <tspan font-family="Arial" font-size="14" fill="black" x="5.5703125" y="13">Log Warning </tspan>
          <tspan font-family="Arial" font-size="14" fill="black" x="7.344238" y="29.458008">&quot;Not Found&quot;</tspan>
        </text>
      </g>
      <g id="Line_137">
        <path d="M 902 907 L 902 1012 C 902 1014.7614 904.2386 1017 907 1017 L 1032.1 1017" marker-end="url(#FilledArrow_Marker)" stroke="black" stroke-linecap="round" stroke-linejoin="round" stroke-width="1"/>
      </g>
      <g id="Line_139">
        <line x1="1052" y1="957" x2="1052" y2="997.1" marker-end="url(#FilledArrow_Marker)" stroke="black" stroke-linecap="round" stroke-linejoin="round" stroke-width="1"/>
      </g>
      <g id="Graphic_140">
        <path d="M 1052 1007 L 1062 1017 L 1052 1027 L 1042 1017 Z" fill="white"/>
        <path d="M 1052 1007 L 1062 1017 L 1052 1027 L 1042 1017 Z" stroke="black" stroke-linecap="round" stroke-linejoin="round" stroke-width="1"/>
      </g>
      <g id="Line_141">
        <path d="M 1052 1027 L 1052 1037 L 1052 1037.1" marker-end="url(#FilledArrow_Marker)" stroke="black" stroke-linecap="round" stroke-linejoin="round" stroke-width="1"/>
      </g>
      <g id="Graphic_142">
        <path d="M 1122 547 L 1132 557 L 1122 567 L 1112 557 Z" fill="white"/>
        <path d="M 1122 547 L 1132 557 L 1122 567 L 1112 557 Z" stroke="black" stroke-linecap="round" stroke-linejoin="round" stroke-width="1"/>
      </g>
      <g id="Line_143">
        <path d="M 1132 397 L 1457 397 C 1459.7614 397 1462 399.2386 1462 402 L 1462 537.1" marker-end="url(#FilledArrow_Marker)" stroke="black" stroke-linecap="round" stroke-linejoin="round" stroke-width="1"/>
      </g>
      <g id="Graphic_144">
        <rect x="1269.6022" y="386.33643" width="113.94531" height="21.327148" fill="white"/>
        <text transform="translate(1274.6022 391.33643)" fill="black">
          <tspan font-family="Arial" font-size="10" fill="black" x="0" y="9">Contains No Reference</tspan>
        </text>
      </g>
      <g id="Line_145">
        <path d="M 1462 567 L 1462 642 C 1462 644.7614 1459.7614 647 1457 647 L 1457 647 C 1454.2386 647 1452 649.2386 1452 652 L 1452 667.1" marker-end="url(#FilledArrow_Marker)" stroke="black" stroke-linecap="round" stroke-linejoin="round" stroke-width="1"/>
      </g>
      <g id="Graphic_146">
        <rect x="1032.8228" y="966.1274" width="38.35449" height="21.327148" fill="white"/>
        <text transform="translate(1037.8228 971.1274)" fill="black">
          <tspan font-family="Arial" font-size="10" fill="black" x="0" y="9">Found</tspan>
        </text>
      </g>
      <g id="Graphic_149">
        <rect x="1362" y="677" width="120" height="10" fill="black"/>
        <rect x="1362" y="677" width="120" height="10" stroke="black" stroke-linecap="round" stroke-linejoin="round" stroke-width="1"/>
      </g>
      <g id="Line_150">
        <path d="M 1152 637 L 1152 642 C 1152 644.7614 1154.2386 647 1157 647 L 1387 647 C 1389.7614 647 1392 649.2386 1392 652 L 1392 667.1" marker-end="url(#FilledArrow_Marker)" stroke="black" stroke-linecap="round" stroke-linejoin="round" stroke-width="1"/>
      </g>
      <g id="Line_151">
        <line x1="1422" y1="687" x2="1422" y2="887.1" marker-end="url(#FilledArrow_Marker)" stroke="black" stroke-linecap="round" stroke-linejoin="round" stroke-width="1"/>
      </g>
      <g id="Graphic_152">
        <rect x="1232" y="1117" width="120" height="10" fill="black"/>
        <rect x="1232" y="1117" width="120" height="10" stroke="black" stroke-linecap="round" stroke-linejoin="round" stroke-width="1"/>
      </g>
      <g id="Graphic_153">
        <rect x="992" y="1047" width="120" height="10" fill="black"/>
        <rect x="992" y="1047" width="120" height="10" stroke="black" stroke-linecap="round" stroke-linejoin="round" stroke-width="1"/>
      </g>
      <g id="Graphic_154">
        <path d="M 877 1157 L 977 1157 C 996.33 1157 1012 1172.67 1012 1192 L 1012 1192 C 1012 1211.33 996.33 1227 977 1227 L 877 1227 C 857.67 1227 842 1211.33 842 1192 L 842 1192 C 842 1172.67 857.67 1157 877 1157 Z" fill="white"/>
        <path d="M 877 1157 L 977 1157 C 996.33 1157 1012 1172.67 1012 1192 L 1012 1192 C 1012 1211.33 996.33 1227 977 1227 L 877 1227 C 857.67 1227 842 1211.33 842 1192 L 842 1192 C 842 1172.67 857.67 1157 877 1157 Z" stroke="black" stroke-linecap="round" stroke-linejoin="round" stroke-width="1.4"/>
        <text transform="translate(847 1165.7148)" fill="black">
          <tspan font-family="Arial" font-size="16" fill="black" x="33.847656" y="14">Change &quot;file&quot;</tspan>
          <tspan font-family="Arial" font-size="16" fill="black" x="8.855469" y="31.523438">Attribute to Name of </tspan>
          <tspan font-family="Arial" font-size="16" fill="black" x="19.964844" y="49.046875">Debug Resource</tspan>
        </text>
      </g>
      <g id="Graphic_155">
        <path d="M 877 1257 L 977 1257 C 996.33 1257 1012 1272.67 1012 1292 L 1012 1292 C 1012 1311.33 996.33 1327 977 1327 L 877 1327 C 857.67 1327 842 1311.33 842 1292 L 842 1292 C 842 1272.67 857.67 1257 877 1257 Z" fill="white"/>
        <path d="M 877 1257 L 977 1257 C 996.33 1257 1012 1272.67 1012 1292 L 1012 1292 C 1012 1311.33 996.33 1327 977 1327 L 877 1327 C 857.67 1327 842 1311.33 842 1292 L 842 1292 C 842 1272.67 857.67 1257 877 1257 Z" stroke="black" stroke-linecap="round" stroke-linejoin="round" stroke-width="1.4"/>
        <text transform="translate(847 1265.7148)" fill="black">
          <tspan font-family="Arial" font-size="16" fill="black" x="19.527344" y="14">Create Resource </tspan>
          <tspan font-family="Arial" font-size="16" fill="black" x="16.894531" y="31.523438">&quot;&lt;debug resource </tspan>
          <tspan font-family="Arial" font-size="16" fill="black" x="34.691406" y="49.046875">name&gt;.map&quot;</tspan>
        </text>
      </g>
      <g id="Line_156">
        <path d="M 1232 887.7 L 1232 1062 C 1232 1064.7614 1229.7614 1067 1227 1067 L 1181.9 1067" marker-end="url(#FilledArrow_Marker)" stroke="black" stroke-linecap="round" stroke-linejoin="round" stroke-width="1"/>
      </g>
      <g id="Line_157">
        <line x1="1162" y1="1007" x2="1162" y2="1047.1" marker-end="url(#FilledArrow_Marker)" stroke="black" stroke-linecap="round" stroke-linejoin="round" stroke-width="1"/>
      </g>
      <g id="Line_158">
        <path d="M 1422 967 L 1422 1082 C 1422 1084.7614 1419.7614 1087 1417 1087 L 1327 1087 C 1324.2386 1087 1322 1089.2386 1322 1092 L 1322 1107.1" marker-end="url(#FilledArrow_Marker)" stroke="black" stroke-linecap="round" stroke-linejoin="round" stroke-width="1"/>
      </g>
      <g id="Graphic_159">
        <rect x="1202" y="1457" width="120" height="10" fill="black"/>
        <rect x="1202" y="1457" width="120" height="10" stroke="black" stroke-linecap="round" stroke-linejoin="round" stroke-width="1"/>
      </g>
      <g id="Line_160">
        <path d="M 1082 1057 L 1082 1062 C 1082 1064.7614 1084.2386 1067 1087 1067 L 1142.1 1067" marker-end="url(#FilledArrow_Marker)" stroke="black" stroke-linecap="round" stroke-linejoin="round" stroke-width="1"/>
      </g>
      <g id="Line_161">
        <path d="M 1022 1057 L 1022 1062.0053 C 1022 1064.7646 1019.7646 1067.0024 1017.0053 1067.0053 L 931.9947 1067.0947 C 929.2354 1067.0976 927 1069.3354 927 1072.0947 L 927 1077.1" marker-end="url(#FilledArrow_Marker)" stroke="black" stroke-linecap="round" stroke-linejoin="round" stroke-width="1"/>
      </g>
      <g id="Line_162">
        <path d="M 1292 1127 L 1292 1132 C 1292 1134.7614 1294.2386 1137 1297 1137 L 1617 1137 C 1619.7614 1137 1622 1139.2386 1622 1142 L 1622 1237.1" marker-end="url(#FilledArrow_Marker)" stroke="black" stroke-linecap="round" stroke-linejoin="round" stroke-width="1"/>
      </g>
      <g id="Line_163">
        <path d="M 1622 1317 L 1622 1422 C 1622 1424.7614 1619.7614 1427 1617 1427 L 1297 1427 C 1294.2386 1427 1292 1429.2386 1292 1432 L 1292 1447.1" marker-end="url(#FilledArrow_Marker)" stroke="black" stroke-linecap="round" stroke-linejoin="round" stroke-width="1"/>
      </g>
      <g id="Line_164">
        <path d="M 927 1417 L 927 1422 C 927 1424.7614 929.2386 1427 932 1427 L 1227 1427 C 1229.7614 1427 1232 1429.2386 1232 1432 L 1232 1447.1" marker-end="url(#FilledArrow_Marker)" stroke="black" stroke-linecap="round" stroke-linejoin="round" stroke-width="1"/>
      </g>
      <g id="Line_165">
        <line x1="927" y1="1127" x2="927" y2="1147.1" marker-end="url(#FilledArrow_Marker)" stroke="black" stroke-linecap="round" stroke-linejoin="round" stroke-width="1"/>
      </g>
      <g id="Line_167">
        <line x1="927" y1="1227" x2="927" y2="1247.1" marker-end="url(#FilledArrow_Marker)" stroke="black" stroke-linecap="round" stroke-linejoin="round" stroke-width="1"/>
      </g>
      <g id="Line_168">
        <line x1="927" y1="1327" x2="927" y2="1347.1" marker-end="url(#FilledArrow_Marker)" stroke="black" stroke-linecap="round" stroke-linejoin="round" stroke-width="1"/>
      </g>
      <g id="Line_169">
        <path d="M 1262 1467 L 1262 1472 C 1262 1474.7614 1259.7614 1477 1257 1477 L 727 1477 C 724.2386 1477 722 1479.2386 722 1482 L 722 1497.1" marker-end="url(#FilledArrow_Marker)" stroke="black" stroke-linecap="round" stroke-linejoin="round" stroke-width="1"/>
      </g>
      <g id="Graphic_177">
        <rect x="1222" y="258" width="220" height="59.37402" fill="#e1e1e1"/>
        <text transform="translate(1227 263)" fill="black">
          <tspan font-family="Arial" font-size="14" fill="black" x="40.80371" y="13">Searching For String</tspan>
          <tspan font-family="Arial" font-size="14" fill="black" x="24.34961" y="29.458008">&quot;//# sourceMappingURL=&quot;</tspan>
          <tspan font-family="Arial" font-size="14" fill="black" x="40.40381" y="45.916016">at the End of the File</tspan>
        </text>
      </g>
      <g id="Graphic_178">
        <rect x="1252" y="467" width="180" height="53.177734" fill="#e1e1e1"/>
        <text transform="translate(1257 472)" fill="black">
          <tspan font-family="Arial" font-size="12" fill="black" x="7.076172" y="11">There Is a High Risk That the </tspan>
          <tspan font-family="Arial" font-size="12" fill="black" x="4.290039" y="25.392578">Referenced Source Map Does </tspan>
          <tspan font-family="Arial" font-size="12" fill="black" x="11.631836" y="39.785156">Not Reflect the Modification</tspan>
        </text>
      </g>
      <g id="Graphic_180">
        <rect x="1062" y="627" width="120" height="10" fill="black"/>
        <rect x="1062" y="627" width="120" height="10" stroke="black" stroke-linecap="round" stroke-linejoin="round" stroke-width="1"/>
      </g>
      <g id="Line_181">
        <line x1="1122" y1="567" x2="1122" y2="617.1" marker-end="url(#FilledArrow_Marker)" stroke="black" stroke-linecap="round" stroke-linejoin="round" stroke-width="1"/>
      </g>
      <g id="Graphic_182">
        <rect x="1060.8647" y="582.7919" width="122.27051" height="21.327148" fill="white"/>
        <text transform="translate(1065.8647 587.7919)" fill="black">
          <tspan font-family="Arial" font-size="10" fill="black" x="0" y="9">Resource Is Not Modified</tspan>
        </text>
      </g>
      <g id="Graphic_183">
        <path d="M 1162 1057 L 1172 1067 L 1162 1077 L 1152 1067 Z" fill="white"/>
        <path d="M 1162 1057 L 1172 1067 L 1162 1077 L 1152 1067 Z" stroke="black" stroke-linecap="round" stroke-linejoin="round" stroke-width="1"/>
      </g>
      <g id="Line_184">
        <path d="M 1162 1077 L 1162 1082 C 1162 1084.7614 1164.2386 1087 1167 1087 L 1257 1087 C 1259.7614 1087 1262 1089.2386 1262 1092 L 1262 1107.1" marker-end="url(#FilledArrow_Marker)" stroke="black" stroke-linecap="round" stroke-linejoin="round" stroke-width="1"/>
      </g>
      <g id="Graphic_185">
        <rect x="1032" y="1337" width="310" height="53.177734" fill="#e1e1e1"/>
        <text transform="translate(1037 1342)" fill="black">
          <tspan font-family="Arial" font-size="12" fill="black" x="103.96582" y="11">Appending String</tspan>
          <tspan font-family="Arial" font-size="12" fill="black" x="2.1533203" y="25.392578">&quot;//# sourceMappingURL=&lt;debug resource name&gt;.map&quot;</tspan>
          <tspan font-family="Arial" font-size="12" fill="black" x="78.62109" y="39.785156">to the End of the Resource</tspan>
        </text>
      </g>
      <g id="Graphic_186">
        <path d="M 682 1507 L 762 1507 C 778.5685 1507 792 1520.4315 792 1537 L 792 1537 C 792 1553.5685 778.5685 1567 762 1567 L 682 1567 C 665.43146 1567 652 1553.5685 652 1537 L 652 1537 C 652 1520.4315 665.43146 1507 682 1507 Z" fill="white"/>
        <path d="M 682 1507 L 762 1507 C 778.5685 1507 792 1520.4315 792 1537 L 792 1537 C 792 1553.5685 778.5685 1567 762 1567 L 682 1567 C 665.43146 1567 652 1553.5685 652 1537 L 652 1537 C 652 1520.4315 665.43146 1507 682 1507 Z" stroke="black" stroke-linecap="round" stroke-linejoin="round" stroke-width="1.4"/>
        <text transform="translate(657 1519.4766)" fill="black">
          <tspan font-family="Arial" font-size="16" fill="black" x="6.019531" y="14">Write Resources </tspan>
          <tspan font-family="Arial" font-size="16" fill="black" x="16.238281" y="31.523438">to Workspace</tspan>
        </text>
      </g>
      <g id="Graphic_188">
        <rect x="1052" y="1127" width="148.8865" height="75.83203" fill="#e1e1e1"/>
        <text transform="translate(1057 1132)" fill="black">
          <tspan font-family="Arial" font-size="14" fill="black" x="4.471077" y="13">This Is the Only Path </tspan>
          <tspan font-family="Arial" font-size="14" fill="black" x="5.780159" y="29.458008">on Which Terser Will </tspan>
          <tspan font-family="Arial" font-size="14" fill="black" x="5.6331863" y="45.916016">Be Provided With an </tspan>
          <tspan font-family="Arial" font-size="14" fill="black" x="14.188362" y="62.37402">Input Source Map</tspan>
        </text>
      </g>
      <g id="Line_189">
        <line x1="1002" y1="466.32653" x2="1027.0408" y2="476.32653" stroke="black" stroke-linecap="round" stroke-linejoin="round" stroke-dasharray="1.0,4.0" stroke-width="1"/>
      </g>
      <g id="Line_190">
        <line x1="1205.1997" y1="304.59184" x2="1222" y2="291.32653" stroke="black" stroke-linecap="round" stroke-linejoin="round" stroke-dasharray="1.0,4.0" stroke-width="1"/>
      </g>
      <g id="Line_191">
        <line x1="1312" y1="520.2653" x2="1302" y2="547" stroke="black" stroke-linecap="round" stroke-linejoin="round" stroke-dasharray="1.0,4.0" stroke-width="1"/>
      </g>
      <g id="Line_192">
        <line x1="1102" y1="1070.2653" x2="1092" y2="1127" stroke="black" stroke-linecap="round" stroke-linejoin="round" stroke-dasharray="1.0,4.0" stroke-width="1"/>
      </g>
      <g id="Line_193">
        <line x1="1032" y1="1367" x2="1012" y2="1377" stroke="black" stroke-linecap="round" stroke-linejoin="round" stroke-dasharray="1.0,4.0" stroke-width="1"/>
      </g>
      <g id="Line_194">
        <line x1="670.3545" y1="1507" x2="642" y2="1457" stroke="black" stroke-linecap="round" stroke-linejoin="round" stroke-dasharray="1.0,4.0" stroke-width="1"/>
      </g>
      <g id="Graphic_187">
        <rect x="582" y="1367" width="230" height="92.29004" fill="#e1e1e1"/>
        <text transform="translate(587 1372)" fill="black">
          <tspan font-family="Arial" font-weight="bold" font-size="14" fill="black" x="0" y="13">Resulting Resources (Example):</tspan>
          <tspan font-family="Arial" font-size="14" fill="black" x="11" y="29.458008">•	Module.js</tspan>
          <tspan font-family="Arial" font-size="14" fill="black" x="11" y="45.916016">•	Module.js.map</tspan>
          <tspan font-family="Arial" font-size="14" fill="black" x="11" y="62.37402">•	Module-dbg.js</tspan>
          <tspan font-family="Arial" font-size="14" fill="black" x="11" y="78.83203">•	Module-dbg.js.map</tspan>
        </text>
      </g>
    </g>
  </g>
</svg>
