<svg width="58" height="61" 
    xmlns="http://www.w3.org/2000/svg">
    <g fill="#fff">
        <path id="svg_2" d="m1.033333,30.933333c0.1,-0.8 0.2,-1.7 0.4,-2.5c0.7,-3.2 2.2,-6.1 4.4,-8.4c0.7,-0.7 1.4,-1.4 2.2,-2c3,-2.3 6.2,-4.3 9.3,-6.4c1.2,-0.8 2.4,-1.7 3.6,-2.6c-0.3,1.5 -1.1,2.8 -2.3,3.9c-1.6,1.6 -3.4,3.2 -5,4.8c-2.5,2.3 -4.1,5.2 -4.7,8.7c-1.1,5.9 2.1,12.1 6.6,14.2c2.6,1.2 5.3,1.3 7.8,-0.3c1.8,-1.2 2.6,-3.4 2.2,-5.2c-0.7,-2.5 -3.9,-3.8 -6.2,-2.4c-0.2,0.1 -0.4,0.3 -0.6,0.4c-0.8,-1.3 -0.5,-3.1 0.7,-4.5c1.3,-1.5 2.9,-2.6 4.7,-3.5c2.2,-1.1 4.4,-2.1 6.3,-3.7c1.5,-1.2 2.7,-2.6 3.2,-4.6c0.9,2.1 0.6,4.1 0,6.2c2,-1 3.6,-2.2 4.8,-4.1c0.4,2.5 0.2,4.8 -0.7,7.2c1.2,-0.6 2.1,-1.1 3.1,-1.6c0.3,1.4 -0.5,3 -2.7,5.5c1.2,1.1 2.5,1.3 4,0.8c2.7,-0.9 5,-3.9 5.2,-6.8c0.3,-3.6 -1.1,-6.6 -3.3,-9.3c-2.5,-3.1 -5.7,-5.5 -9,-7.6c-2.1,-1.3 -4.1,-2.6 -5.6,-4.6c-0.4,-0.5 -0.6,-1.1 -1,-1.7c5.2,2.5 10.3,4.9 15.2,7.5c4.1,2.3 7.7,5.6 10.1,10c1.7,3 2.7,6.3 3,9.7c0.8,7.2 -0.7,13.9 -5,19.9c-4.7,6.3 -10.8,10.2 -18.5,11.5c-1.2,0.2 -2.4,0.3 -3.6,0.5c-0.7,0 -1.3,0 -2,0c-0.1,0 -0.3,-0.1 -0.4,-0.1c-1.7,-0.2 -3.4,-0.3 -5,-0.7c-10.4,-2.7 -17.4,-9.2 -20.6,-19.4c-0.6,-1.8 -0.8,-3.7 -0.8,-5.5c0.1,-1.3 0.1,-2.3 0.2,-3.3zm21.2,-2.1l0,0.2c0.6,0.2 1.2,0.4 1.8,0.5c0.3,0 0.6,-0.2 0.8,-0.4c0.1,-0.1 0.1,-0.6 -0.1,-0.8s-0.6,-0.3 -0.8,-0.3c-0.5,0.3 -1.1,0.6 -1.7,0.8z"/>
    </g>
</svg>